<?xml version="1.0" standalone="no"?>
<!DOCTYPE svg PUBLIC "-//W3C//DTD SVG 1.1//EN" "http://www.w3.org/Graphics/SVG/1.1/DTD/svg11.dtd" >
<svg xmlns="http://www.w3.org/2000/svg" xmlns:xlink="http://www.w3.org/1999/xlink" version="1.1">
<metadata></metadata>
<defs>
<font id="eau_doucesans_regular" horiz-adv-x="1099" >
<font-face units-per-em="2048" ascent="1638" descent="-410" />
<missing-glyph horiz-adv-x="477" />
<glyph horiz-adv-x="0" />
<glyph horiz-adv-x="682" />
<glyph unicode=" "  horiz-adv-x="477" />
<glyph unicode="&#x09;" horiz-adv-x="477" />
<glyph unicode="&#xa0;" horiz-adv-x="477" />
<glyph unicode="!" horiz-adv-x="565" d="M391 1366l-49 -983h-119l-49 983h217zM387 0h-209v211h209v-211z" />
<glyph unicode="&#x22;" horiz-adv-x="819" d="M702 1366l-163 -438h-103l64 438h202zM399 1366l-163 -438h-103l64 438h202z" />
<glyph unicode="#" horiz-adv-x="1124" d="M1051 991h-213l-84 -344h182v-112h-211l-66 -263h-114l65 263h-237l-66 -263h-114l65 263h-184v112h213l84 344h-183v113h211l66 262h115l-66 -262h238l65 262h115l-66 -262h185v-113zM725 991h-240l-86 -344h240z" />
<glyph unicode="$" horiz-adv-x="991" d="M889 416q0 -136 -94 -232.5t-254 -111.5v-209h-88v207q-106 4 -202.5 43.5t-160.5 101.5l105 102q51 -49 127 -79.5t157 -30.5q105 0 171.5 57t66.5 142q0 48 -20.5 84t-54.5 59t-78.5 41t-93.5 34t-98 33.5t-93.5 43t-78.5 60t-54.5 88t-20.5 122.5q0 123 89.5 214.5 t238.5 106.5v209h88v-205q207 -12 344 -145l-105 -104q-112 112 -256 112q-104 0 -163.5 -51.5t-59.5 -126.5q0 -61 32.5 -103.5t84.5 -67t114.5 -44.5t125 -45t114.5 -59.5t84.5 -97t32.5 -148.5z" />
<glyph unicode="%" horiz-adv-x="1730" d="M1640 375q0 -183 -80.5 -286t-213.5 -103q-134 0 -215.5 103t-81.5 286q0 184 81 286.5t216 102.5q133 0 213.5 -102.5t80.5 -286.5zM1413 1366l-954 -1366h-148l957 1366h145zM682 989q0 -183 -80.5 -286t-214.5 -103t-214.5 103t-80.5 286q0 184 80 286.5t215 102.5 t215 -102.5t80 -286.5zM1507 375q0 140 -45 211t-116 71q-72 0 -118 -71t-46 -211q0 -139 46 -210t118 -71q71 0 116 71t45 210zM549 989q0 141 -45 212t-117 71t-117 -71t-45 -212q0 -139 45 -209.5t117 -70.5t117 70.5t45 209.5z" />
<glyph unicode="&#x26;" horiz-adv-x="1316" d="M1348 0h-222l-131 131q-153 -162 -426 -162q-219 0 -344 109.5t-125 275.5q0 132 71.5 225.5t203.5 172.5q-94 98 -136 178t-42 164q0 124 89 212.5t244 88.5q148 0 240 -84t92 -217q0 -57 -18 -107t-54 -94t-78 -80t-102 -78l353 -352q53 145 53 369h166 q0 -305 -97 -492zM705 1092q0 77 -48.5 125.5t-126.5 48.5q-82 0 -127 -49.5t-45 -124.5q0 -63 33 -121.5t113 -139.5q52 36 81 59t60.5 56t45.5 68.5t14 77.5zM885 242l-410 409q-95 -62 -147 -128.5t-52 -155.5q0 -109 80.5 -187t214.5 -78q203 0 314 140z" />
<glyph unicode="'" horiz-adv-x="516" d="M399 1366l-163 -438h-103l64 438h202z" />
<glyph unicode="(" horiz-adv-x="686" d="M625 -100l-152 -56q-287 391 -287 838q0 449 287 840l152 -58q-132 -182 -199.5 -369t-67.5 -413q0 -224 67.5 -411t199.5 -371z" />
<glyph unicode=")" horiz-adv-x="686" d="M500 682q0 -447 -287 -838l-152 56q133 185 201 371.5t68 410.5q0 225 -68 412t-201 370l152 58q287 -391 287 -840z" />
<glyph unicode="*" horiz-adv-x="956" d="M836 1067l-277 -88l168 -236l-82 -59l-168 236l-166 -236l-82 59l166 236l-274 88l31 96l276 -86v289h100v-289l277 86z" />
<glyph unicode="+" horiz-adv-x="1079" d="M956 604h-352v-352h-131v352h-350v131h350v350h131v-350h352v-131z" />
<glyph unicode="," horiz-adv-x="522" d="M385 211l-164 -459h-104l67 459h201z" />
<glyph unicode="-" horiz-adv-x="720" d="M606 446h-491v132h491v-132z" />
<glyph unicode="." horiz-adv-x="522" d="M367 0h-211v211h211v-211z" />
<glyph unicode="/" horiz-adv-x="641" d="M588 1501l-408 -1638h-127l410 1638h125z" />
<glyph unicode="0" d="M993 682q0 -332 -120 -515t-322 -183t-322 183t-120 515q0 334 120 517t322 183t322 -183t120 -517zM821 682q0 268 -73.5 414.5t-196.5 146.5q-124 0 -198 -146.5t-74 -414.5t74 -413.5t198 -145.5q123 0 196.5 145.5t73.5 413.5z" />
<glyph unicode="1" d="M682 0h-164v1171q-51 -50 -153 -88t-218 -53v144q245 35 406 192h129v-1366z" />
<glyph unicode="2" d="M985 0h-907v109q364 310 514.5 506t150.5 376q0 113 -68.5 183.5t-178.5 70.5q-89 0 -153 -27.5t-122 -84.5l-108 108q155 148 383 148q191 0 304 -108.5t113 -276.5q0 -106 -37 -208t-116 -209t-178 -208.5t-248 -233.5h651v-145z" />
<glyph unicode="3" d="M952 362q0 -172 -126.5 -278.5t-340.5 -106.5q-128 0 -235 38t-178 108l108 108q119 -110 295 -110q134 0 218.5 69.5t84.5 178.5q0 108 -85.5 176.5t-211.5 68.5h-178v146h162q136 0 215.5 68.5t79.5 177.5q0 103 -71.5 171t-188.5 68q-93 0 -156 -27t-121 -85l-108 108 q155 148 387 148q192 0 307 -105t115 -268q0 -114 -71 -201.5t-173 -118.5q125 -34 198.5 -124.5t73.5 -209.5z" />
<glyph unicode="4" d="M1047 340h-220v-340h-157v340h-615v145l604 881h168v-883h220v-143zM670 483v664l-449 -664h449z" />
<glyph unicode="5" d="M973 410q0 -187 -128 -310t-333 -123q-230 0 -383 146l109 108q61 -55 123.5 -82.5t144.5 -27.5q135 0 219 83t84 206q0 131 -83.5 210.5t-219.5 79.5q-53 0 -106.5 -23t-94.5 -59l-123 64v684h744v-147h-580v-447q35 27 92 44.5t109 17.5q191 0 308.5 -118t117.5 -306z " />
<glyph unicode="6" d="M999 403q0 -185 -118.5 -305.5t-311.5 -120.5q-107 0 -191.5 39.5t-147.5 122.5t-96.5 220t-33.5 323q0 323 146.5 515t384.5 192q107 0 200.5 -41t157.5 -107l-108 -108q-112 112 -252 112q-173 0 -276 -180t-85 -469q39 109 125 170t207 61q172 0 285.5 -118.5 t113.5 -305.5zM836 403q0 130 -74 211.5t-193 81.5t-192.5 -81.5t-73.5 -211.5q0 -128 73.5 -209t192.5 -81t193 81t74 209z" />
<glyph unicode="7" d="M1001 1266q-216 -270 -350 -577t-194 -689h-178q63 370 187.5 664t319.5 555h-694v147h909v-100z" />
<glyph unicode="8" d="M1010 365q0 -173 -125 -280.5t-334 -107.5t-334 107.5t-125 280.5q0 114 63 203.5t177 125.5q-86 34 -149.5 118.5t-63.5 197.5q0 162 119 270.5t313 108.5t312 -108.5t118 -270.5q0 -113 -63.5 -197.5t-149.5 -118.5q115 -36 178.5 -125.5t63.5 -203.5zM821 1006 q0 107 -73.5 181.5t-196.5 74.5q-124 0 -198 -74.5t-74 -181.5q0 -106 74 -180t198 -74q123 0 196.5 74t73.5 180zM840 369q0 112 -79.5 187t-209.5 75q-132 0 -211.5 -75t-79.5 -187q0 -115 81 -189t210 -74t209 74t80 189z" />
<glyph unicode="9" d="M999 682q0 -322 -145.5 -513.5t-384.5 -191.5q-106 0 -198.5 40.5t-159.5 105.5l108 108q113 -110 254 -110q172 0 275 180t83 467q-37 -108 -122.5 -169.5t-206.5 -61.5q-174 0 -288 118.5t-114 305.5q0 185 118.5 306.5t311.5 121.5q221 0 345 -171t124 -536zM797 961 q0 128 -74 210t-193 82t-192.5 -81.5t-73.5 -210.5t73.5 -211t192.5 -82t193 82.5t74 210.5z" />
<glyph unicode=":" horiz-adv-x="522" d="M367 731h-211v211h211v-211zM367 0h-211v211h211v-211z" />
<glyph unicode=";" horiz-adv-x="522" d="M367 731h-211v211h211v-211zM385 211l-164 -459h-104l67 459h201z" />
<glyph unicode="&#x3c;" horiz-adv-x="571" d="M473 88h-162l-190 383l190 383h162l-190 -383z" />
<glyph unicode="=" horiz-adv-x="1079" d="M956 801h-833v133h833v-133zM956 406h-833v131h833v-131z" />
<glyph unicode="&#x3e;" horiz-adv-x="571" d="M453 471l-193 -383h-162l193 383l-193 383h162z" />
<glyph unicode="?" horiz-adv-x="931" d="M850 1036q0 -68 -21 -125.5t-54.5 -99t-73.5 -79t-80.5 -73.5t-74 -74.5t-54.5 -90t-21 -111.5h-158q0 72 19.5 132t50.5 102.5t68 80t74.5 71.5t68.5 69t50.5 81.5t19.5 100.5q0 99 -70 163t-176 64q-141 0 -262 -117l-109 109q157 154 381 154q186 0 304 -102.5 t118 -254.5zM498 0h-211v211h211v-211z" />
<glyph unicode="@" horiz-adv-x="1591" d="M1505 807q0 -107 -31.5 -205t-81 -165t-109.5 -106.5t-118 -39.5q-78 0 -124 52.5t-37 131.5q-44 -86 -124 -137t-180 -51q-115 0 -190.5 85t-75.5 232q0 191 116 325t277 134q79 0 138.5 -42.5t76.5 -117.5l25 144h133l-88 -500q-14 -83 4 -118.5t66 -35.5q32 0 70.5 31 t73 83t58 130.5t23.5 163.5q0 226 -148.5 364t-375.5 138q-153 0 -283 -58.5t-216 -155.5t-134.5 -221t-48.5 -256q0 -136 40 -243t109.5 -173t159 -99.5t192.5 -33.5q124 0 236.5 42.5t183.5 113.5l72 -72q-81 -83 -211 -132.5t-281 -49.5q-276 0 -445 171.5t-169 475.5 q0 121 35.5 236.5t104.5 215t164 174.5t222 118t269 43q272 0 447 -166t175 -426zM1006 741q0 102 -45.5 155.5t-122.5 53.5q-111 0 -189 -96.5t-78 -245.5q0 -102 45.5 -155.5t122.5 -53.5q112 0 189.5 96t77.5 246z" />
<glyph unicode="A" horiz-adv-x="1177" d="M1169 0h-180l-121 350h-559l-121 -350h-180l494 1366h172zM821 492l-233 671l-232 -671h465z" />
<glyph unicode="B" horiz-adv-x="1159" d="M1059 360q0 -151 -110 -255.5t-287 -104.5h-476v1366h396q221 0 337.5 -92.5t116.5 -257.5q0 -115 -70 -205.5t-188 -120.5q126 -24 203.5 -112.5t77.5 -217.5zM860 991q0 102 -71.5 170t-184.5 68h-246v-475h246q113 0 184.5 67.5t71.5 169.5zM883 379 q0 103 -71.5 172.5t-186.5 69.5h-267v-486h267q115 0 186.5 70.5t71.5 173.5z" />
<glyph unicode="C" horiz-adv-x="1208" d="M1020 231l108 -108q-71 -69 -176.5 -111.5t-228.5 -42.5q-192 0 -334 91t-215.5 252t-73.5 370t73.5 370t215.5 252t334 91q123 0 228.5 -41.5t176.5 -110.5l-108 -110q-114 114 -281 114q-211 0 -330.5 -155.5t-119.5 -409.5q0 -253 119.5 -408t330.5 -155 q169 0 281 112z" />
<glyph unicode="D" horiz-adv-x="1325" d="M1223 682q0 -315 -184 -498.5t-496 -183.5h-357v1366h357q312 0 496 -183.5t184 -500.5zM1036 682q0 247 -136.5 392t-362.5 145h-172v-1074h172q226 0 362.5 145.5t136.5 391.5z" />
<glyph unicode="E" horiz-adv-x="1024" d="M899 0h-713v1366h701v-147h-522v-459h507v-146h-507v-469h534v-145z" />
<glyph unicode="F" horiz-adv-x="993" d="M899 1219h-534v-459h522v-146h-522v-614h-179v1366h713v-147z" />
<glyph unicode="G" horiz-adv-x="1275" d="M1149 1243l-109 -110q-52 53 -128 83.5t-162 30.5q-213 0 -337 -157t-124 -408q0 -253 122.5 -407t321.5 -154q139 0 236 80v391h-262v147h438v-616q-70 -72 -176.5 -113t-237.5 -41q-189 0 -333 91t-221 252.5t-77 369.5q0 205 75.5 366t222 254t341.5 93 q124 0 232.5 -42t177.5 -110z" />
<glyph unicode="H" horiz-adv-x="1329" d="M1145 1366v-1366h-180v614h-603v-614h-176v1366h176v-606h603v606h180z" />
<glyph unicode="I" horiz-adv-x="550" d="M365 0h-179v1366h179v-1366z" />
<glyph unicode="J" horiz-adv-x="913" d="M727 338q0 -168 -92.5 -268.5t-269.5 -100.5q-104 0 -185 38.5t-162 119.5l109 109q60 -60 113.5 -88.5t115.5 -28.5q85 0 139 61t54 154v1032h178v-1028z" />
<glyph unicode="K" horiz-adv-x="1171" d="M1169 0h-221l-583 662v-662h-179v1366h179v-639l565 639h219l-612 -672z" />
<glyph unicode="L" horiz-adv-x="915" d="M899 0h-713v1366h179v-1221h534v-145z" />
<glyph unicode="M" horiz-adv-x="1638" d="M1452 1366v-1366h-162v1190l-375 -1190h-192l-373 1190v-1190h-164v1366h271l362 -1159l363 1159h270z" />
<glyph unicode="N" horiz-adv-x="1374" d="M1188 1366v-1366h-217l-619 1120v-1120h-166v1366h217l619 -1120v1120h166z" />
<glyph unicode="O" horiz-adv-x="1382" d="M1282 682q0 -208 -70 -369t-204.5 -252.5t-315.5 -91.5t-316 91.5t-205.5 252.5t-70.5 369q0 209 70.5 370t205.5 252t316 91t315.5 -91t204.5 -252t70 -370zM1096 682q0 256 -107.5 410.5t-296.5 154.5q-190 0 -296.5 -154t-106.5 -411q0 -255 106.5 -409t296.5 -154 q189 0 296.5 154t107.5 409z" />
<glyph unicode="P" horiz-adv-x="1128" d="M1038 979q0 -164 -117.5 -275.5t-299.5 -111.5h-256v-592h-179v1366h435q182 0 299.5 -111.5t117.5 -275.5zM860 979q0 101 -73 170.5t-185 69.5h-237v-482h237q113 0 185.5 69.5t72.5 172.5z" />
<glyph unicode="Q" horiz-adv-x="1382" d="M1346 70l-121 -121l-221 110q-136 -90 -312 -90q-181 0 -316 91.5t-205.5 252.5t-70.5 369q0 209 70.5 370t205.5 252t316 91t315.5 -91t204.5 -252t70 -370q0 -315 -158 -502zM1096 682q0 256 -107.5 410.5t-296.5 154.5q-190 0 -296.5 -154t-106.5 -411 q0 -255 106.5 -409t296.5 -154q189 0 296.5 154t107.5 409z" />
<glyph unicode="R" horiz-adv-x="1204" d="M1104 0h-189l-92 416q-22 99 -77 143.5t-158 44.5h-223v-604h-179v1366h396q221 0 340.5 -100.5t119.5 -268.5q0 -116 -69.5 -205t-188.5 -118q86 -13 140.5 -73.5t74.5 -149.5zM858 985q0 104 -72.5 171t-181.5 67h-239v-475h239q109 0 181.5 66.5t72.5 170.5z" />
<glyph unicode="S" horiz-adv-x="1038" d="M961 362q0 -172 -131 -282.5t-347 -110.5q-127 0 -236.5 40.5t-185.5 113.5l109 108q55 -52 138.5 -83t170.5 -31q133 0 215 68.5t82 172.5q0 58 -23.5 102t-62.5 72t-90 49.5t-107.5 40t-113 38.5t-107.5 49.5t-90 68.5t-62.5 101t-23.5 141q0 153 127 264t318 111 q125 0 229 -41t176 -113l-108 -108q-53 53 -127.5 84.5t-157.5 31.5q-120 0 -196 -67t-76 -156q0 -55 23.5 -96.5t62.5 -68t90 -47t107.5 -39t113 -39t107.5 -51.5t90 -71.5t62.5 -105t23.5 -146.5z" />
<glyph unicode="T" horiz-adv-x="1042" d="M1022 1366v-147h-412v-1219h-178v1219h-412v147h1002z" />
<glyph unicode="U" horiz-adv-x="1361" d="M1176 1366v-911q0 -227 -135 -356.5t-361 -129.5q-225 0 -359.5 130t-134.5 356v911h176v-911q0 -156 87.5 -246t230.5 -90q144 0 230.5 89.5t86.5 246.5v911h179z" />
<glyph unicode="V" horiz-adv-x="1177" d="M1169 1366l-495 -1366h-172l-494 1366h191l389 -1147l391 1147h190z" />
<glyph unicode="W" horiz-adv-x="1673" d="M1657 1366l-346 -1366h-203l-270 1137l-271 -1137h-205l-344 1366h181l270 -1139l270 1139h195l272 -1139l269 1139h182z" />
<glyph unicode="X" horiz-adv-x="1187" d="M1167 0h-217l-356 580l-356 -580h-215l456 698l-438 668h211l342 -551l342 551h213l-440 -668z" />
<glyph unicode="Y" horiz-adv-x="1138" d="M1143 1366l-484 -743v-623h-178v623l-483 743h215l356 -580l357 580h217z" />
<glyph unicode="Z" horiz-adv-x="1062" d="M999 0h-936v109l685 1110h-664v147h893v-111l-684 -1110h706v-145z" />
<glyph unicode="[" horiz-adv-x="720" d="M600 -137h-387v1638h387v-127h-233v-1384h233v-127z" />
<glyph unicode="\" horiz-adv-x="638" d="M586 -137h-123l-408 1638h121z" />
<glyph unicode="]" horiz-adv-x="720" d="M508 -137h-387v127h233v1384h-233v127h387v-1638z" />
<glyph unicode="^" horiz-adv-x="509" d="M471 1075h-119l-98 197l-96 -197h-119l151 291h129z" />
<glyph unicode="_" horiz-adv-x="696" d="M696 0h-696v113h696v-113z" />
<glyph unicode="`" horiz-adv-x="509" d="M391 1075h-96l-232 291h201z" />
<glyph unicode="a" horiz-adv-x="1042" d="M879 0h-158v182q-39 -89 -124.5 -147t-203.5 -58q-135 0 -216 77t-81 194q0 132 103 217.5t293 85.5h223v57q0 110 -57 169t-169 59q-125 0 -233 -91l-98 97q160 123 350 123q174 0 272.5 -93t98.5 -260v-612zM715 403v21h-205q-131 0 -189.5 -44t-58.5 -116 q0 -64 49 -106.5t131 -42.5q114 0 193.5 84t79.5 204z" />
<glyph unicode="b" horiz-adv-x="1136" d="M1047 471q0 -230 -117 -362t-295 -132q-110 0 -188 57.5t-125 153.5v-188h-158v1366h164v-606q42 91 120.5 148t188.5 57q178 0 294 -131.5t116 -362.5zM877 471q0 170 -76.5 266.5t-198.5 96.5q-121 0 -197.5 -96.5t-76.5 -266.5t76.5 -266t197.5 -96q122 0 198.5 96 t76.5 266z" />
<glyph unicode="c" horiz-adv-x="948" d="M872 100q-123 -123 -313 -123q-209 0 -339 133.5t-130 360.5t130 360.5t339 133.5q190 0 313 -123l-98 -97q-89 89 -203 89q-138 0 -223.5 -98t-85.5 -265t85.5 -264.5t223.5 -97.5q115 0 203 88z" />
<glyph unicode="d" horiz-adv-x="1136" d="M973 0h-160v188q-45 -95 -123 -153t-188 -58q-178 0 -295 132t-117 362t115.5 362t292.5 132q112 0 190.5 -57t120.5 -148v606h164v-1366zM809 471q0 170 -76.5 266.5t-197.5 96.5q-122 0 -198.5 -96.5t-76.5 -266.5t76.5 -266t198.5 -96q121 0 197.5 96t76.5 266z" />
<glyph unicode="e" horiz-adv-x="1007" d="M909 457h-651q4 -173 84.5 -262t228.5 -89q129 0 220 91l96 -97q-120 -123 -326 -123q-221 0 -346 132.5t-125 361.5q0 220 120 357t312 137q178 0 282.5 -110t104.5 -325v-73zM754 584v20q0 120 -62.5 181t-169.5 61q-106 0 -175 -73t-87 -189h494z" />
<glyph unicode="f" horiz-adv-x="702" d="M627 809h-238v-809h-164v809h-194v133h194v199q0 117 67.5 182.5t186.5 65.5q77 0 148 -23v-133q-49 22 -111 22q-67 0 -97 -31t-30 -100v-182h238v-133z" />
<glyph unicode="g" horiz-adv-x="1136" d="M973 12q0 -200 -122.5 -329t-332.5 -129q-112 0 -207 35.5t-149 86.5l96 99q99 -92 252 -92q138 0 218.5 88.5t80.5 240.5v170q-42 -91 -120.5 -148t-190.5 -57q-177 0 -292.5 132t-115.5 362t117 362t295 132q110 0 188 -58t123 -153v188h160v-930zM809 471 q0 170 -76.5 266.5t-197.5 96.5q-122 0 -198.5 -96.5t-76.5 -266.5t76.5 -266t198.5 -96q121 0 197.5 96t76.5 266z" />
<glyph unicode="h" horiz-adv-x="1132" d="M969 0h-164v571q0 129 -54 192.5t-145 63.5q-128 0 -203 -93.5t-75 -250.5v-483h-164v1366h164v-612q45 95 125.5 153t195.5 58q146 0 233 -94t87 -265v-606z" />
<glyph unicode="i" horiz-adv-x="493" d="M338 1182h-184v184h184v-184zM330 0h-166v942h166v-942z" />
<glyph unicode="j" horiz-adv-x="501" d="M346 1182h-184v184h184v-184zM338 -199q0 -117 -67.5 -182t-186.5 -65q-79 0 -147 22v133q49 -22 108 -22q67 0 97 31t30 100v1124h166v-1141z" />
<glyph unicode="k" horiz-adv-x="966" d="M952 0h-204l-420 444v-444h-164v1366h164v-852l405 428h197l-449 -459z" />
<glyph unicode="l" horiz-adv-x="493" d="M330 0h-166v1366h166v-1366z" />
<glyph unicode="m" horiz-adv-x="1648" d="M1485 0h-164v571q0 135 -42.5 195.5t-125.5 60.5q-108 0 -177 -96.5t-69 -236.5v-494h-164v571q0 256 -168 256q-110 0 -178.5 -96.5t-68.5 -236.5v-494h-164v942h158v-197q41 99 116.5 159.5t179.5 60.5q108 0 179.5 -62t91.5 -174q40 107 120 171.5t189 64.5 q132 0 209.5 -91.5t77.5 -267.5v-606z" />
<glyph unicode="n" horiz-adv-x="1132" d="M969 0h-164v571q0 129 -54 192.5t-145 63.5q-128 0 -203 -93.5t-75 -250.5v-483h-164v942h158v-197q44 98 128 159t199 61q146 0 233 -94t87 -265v-606z" />
<glyph unicode="o" horiz-adv-x="1067" d="M977 471q0 -227 -122 -360.5t-320 -133.5q-199 0 -322 133.5t-123 360.5t123 360.5t322 133.5q198 0 320 -133.5t122 -360.5zM809 471q0 170 -76.5 266.5t-197.5 96.5q-122 0 -198.5 -96.5t-76.5 -266.5t76.5 -266t198.5 -96q121 0 197.5 96t76.5 266z" />
<glyph unicode="p" horiz-adv-x="1136" d="M1047 471q0 -231 -116 -362.5t-294 -131.5q-110 0 -188.5 57t-120.5 148v-606h-164v1366h158v-188q47 96 125 153.5t188 57.5q178 0 295 -132t117 -362zM877 471q0 170 -76.5 266.5t-198.5 96.5q-121 0 -197.5 -96.5t-76.5 -266.5t76.5 -266t197.5 -96q122 0 198.5 96 t76.5 266z" />
<glyph unicode="q" horiz-adv-x="1136" d="M973 -424h-164v606q-42 -91 -120.5 -148t-190.5 -57q-177 0 -292.5 132t-115.5 362t117 362t295 132q110 0 188 -58t123 -153v188h160v-1366zM809 471q0 170 -76.5 266.5t-197.5 96.5q-122 0 -198.5 -96.5t-76.5 -266.5t76.5 -266t198.5 -96q121 0 197.5 96t76.5 266z " />
<glyph unicode="r" horiz-adv-x="813" d="M754 801q-74 24 -121 24q-143 0 -224 -95t-81 -255v-475h-164v942h158v-203q44 103 128 164.5t205 61.5q50 0 99 -17v-147z" />
<glyph unicode="s" horiz-adv-x="882" d="M780 254q0 -117 -94.5 -197t-267.5 -80q-101 0 -191.5 33t-150.5 90l96 97q44 -43 111.5 -68t136.5 -25q92 0 143 40.5t51 101.5q0 36 -17 64t-46 46.5t-66 33.5t-78.5 28t-82.5 28t-78 37t-66 50t-46 71t-17 98q0 104 90 183.5t246 79.5q97 0 180.5 -33t142.5 -90 l-98 -97q-96 93 -221 93q-85 0 -130.5 -41t-45.5 -92q0 -44 27.5 -75.5t71.5 -50.5t97 -35.5t106.5 -38t97.5 -50.5t71.5 -80.5t27.5 -120.5z" />
<glyph unicode="t" horiz-adv-x="714" d="M627 809h-238v-567q0 -69 30 -101t97 -32q64 0 111 24v-133q-71 -23 -148 -23q-119 0 -186.5 65t-67.5 183v584h-194v133h194v287h164v-287h238v-133z" />
<glyph unicode="u" horiz-adv-x="1132" d="M969 0h-158v197q-45 -98 -128.5 -159t-199.5 -61q-146 0 -232.5 94t-86.5 265v606h164v-571q0 -129 53.5 -192.5t144.5 -63.5q129 0 204 93.5t75 250.5v483h164v-942z" />
<glyph unicode="v" horiz-adv-x="909" d="M895 942l-358 -942h-164l-359 942h179l262 -762l262 762h178z" />
<glyph unicode="w" horiz-adv-x="1382" d="M1364 942l-272 -942h-195l-207 760l-205 -760h-194l-273 942h162l213 -792l213 792h170l213 -792l213 792h162z" />
<glyph unicode="x" horiz-adv-x="892" d="M868 0h-190l-232 377l-231 -377h-190l327 483l-311 459h186l219 -356l220 356h180l-305 -459z" />
<glyph unicode="y" horiz-adv-x="909" d="M895 942l-461 -1216q-35 -90 -92.5 -131t-144.5 -41q-77 0 -148 22v133q52 -22 111 -22q93 0 116 63l95 254l-357 938h176l265 -770l264 770h176z" />
<glyph unicode="z" horiz-adv-x="913" d="M821 0h-733v94l498 715h-486v133h709v-98l-498 -711h510v-133z" />
<glyph unicode="{" horiz-adv-x="722" d="M657 -137q-71 -23 -145 -23q-104 0 -163.5 65t-59.5 179v328q0 89 -48.5 144.5t-117.5 55.5h-47v142h47q69 0 117.5 55.5t48.5 142.5v330q0 114 59.5 179t163.5 65q78 0 145 -25v-125q-46 19 -98 19q-117 0 -117 -127v-332q0 -104 -52 -173t-138 -81q86 -11 138 -79.5 t52 -174.5v-330q0 -129 117 -129q47 0 98 21v-127z" />
<glyph unicode="|" horiz-adv-x="612" d="M367 -424h-121v1790h121v-1790z" />
<glyph unicode="}" horiz-adv-x="722" d="M647 612h-47q-68 0 -117 -56t-49 -144v-328q0 -114 -59 -179t-164 -65q-71 0 -145 23v127q51 -21 98 -21q117 0 117 129v330q0 106 52 174.5t138 79.5q-86 12 -138 81t-52 173v332q0 127 -117 127q-52 0 -98 -19v125q70 25 145 25q105 0 164 -65t59 -179v-330 q0 -87 49 -142.5t117 -55.5h47v-142z" />
<glyph unicode="~" horiz-adv-x="890" d="M791 606q-55 -55 -79.5 -76.5t-62.5 -39t-82 -17.5t-82 18.5t-60 40t-49 40t-52 18.5q-20 0 -45.5 -16t-42 -31.5t-56.5 -55.5l-80 80q55 55 79.5 76.5t62.5 39t82 17.5t82 -18t60 -40t49 -40t52 -18q29 0 61 24.5t83 77.5z" />
<glyph unicode="&#xa1;" horiz-adv-x="565" d="M387 1155h-209v211h209v-211zM391 0h-217l49 983h119z" />
<glyph unicode="&#xa2;" horiz-adv-x="948" d="M872 311q-110 -110 -272 -121v-190h-88v190q-190 15 -306 146.5t-116 345.5q0 215 115.5 347t306.5 147v190h88v-190q165 -14 272 -121l-98 -99q-85 88 -203 88q-138 0 -223.5 -97.5t-85.5 -264.5q0 -166 85 -263t224 -97q118 0 203 88z" />
<glyph unicode="&#xa3;" horiz-adv-x="1079" d="M971 1239l-109 -109q-117 117 -235 117q-108 0 -172 -68.5t-64 -174.5v-322h271v-88h-271v-449h572v-145h-873v145h129v449h-129v88h129v315q0 178 102 288t297 110q197 0 353 -156z" />
<glyph unicode="&#xa5;" horiz-adv-x="1138" d="M1143 1366l-400 -608h230v-88h-285l-29 -47v-134h314v-90h-314v-399h-178v399h-315v90h315v134l-30 47h-285v88h229l-397 608h215l356 -580l357 580h217z" />
<glyph unicode="&#xa6;" horiz-adv-x="612" d="M369 784h-125v717h125v-717zM369 -137h-125v717h125v-717z" />
<glyph unicode="&#xa7;" horiz-adv-x="1040" d="M920 508q0 -120 -69.5 -209.5t-199.5 -114.5q103 -31 168.5 -111.5t65.5 -193.5q0 -134 -106 -229.5t-277 -95.5q-115 0 -211.5 39t-165.5 106l102 104q119 -112 258 -112q104 0 164 52.5t60 127.5q0 57 -32.5 99.5t-84.5 70t-114.5 51.5t-125 52t-114.5 63t-84.5 93 t-32.5 134q0 120 69 209.5t199 114.5q-104 30 -168.5 111t-64.5 194q0 134 106 230t275 96q225 0 378 -146l-104 -104q-115 112 -258 112q-103 0 -163 -53t-60 -127q0 -45 20 -81t54.5 -60.5t78.5 -45.5t93 -40t98 -39t93 -47t78.5 -60t54.5 -81.5t20 -108.5zM750 479 q0 85 -55.5 137.5t-159.5 55.5q-111 3 -177.5 -58t-66.5 -143q0 -84 55 -136.5t158 -55.5q111 -3 178.5 57.5t67.5 142.5z" />
<glyph unicode="&#xa8;" horiz-adv-x="503" d="M492 1182h-185v184h185v-184zM197 1182h-185v184h185v-184z" />
<glyph unicode="&#xa9;" horiz-adv-x="1597" d="M1481 682q0 -139 -54 -265.5t-145 -217.5t-217.5 -145t-265.5 -54t-265.5 54t-217.5 145t-145 217.5t-54 265.5t54 265.5t145 218t217.5 146t265.5 54.5t265.5 -54.5t217.5 -146t145 -218t54 -265.5zM1393 682q0 161 -79.5 298t-216.5 216.5t-298 79.5t-298 -79.5 t-216.5 -216.5t-79.5 -298t79.5 -297.5t216.5 -215.5t298 -79t298 79t216.5 215.5t79.5 297.5zM1059 367q-41 -40 -104 -65.5t-134 -25.5q-165 0 -262.5 112.5t-97.5 293.5q0 182 97.5 295t262.5 113q71 0 134 -26t104 -67l-66 -63q-29 27 -73.5 45t-88.5 18 q-119 0 -187.5 -85.5t-68.5 -229.5q0 -142 68.5 -227.5t187.5 -85.5q45 0 89.5 17.5t72.5 45.5z" />
<glyph unicode="&#xaa;" horiz-adv-x="776" d="M639 705h-119v106q-29 -52 -93.5 -86.5t-133.5 -34.5q-92 0 -151.5 56.5t-59.5 132.5q0 96 69.5 153.5t210.5 57.5h154v40q0 75 -38.5 114.5t-110.5 39.5q-87 0 -158 -61l-74 71q110 86 244 86q122 0 191 -64.5t69 -180.5v-430zM516 989v12h-141q-168 0 -168 -116 q0 -43 32.5 -72t88.5 -29q86 0 137 55.5t51 149.5z" />
<glyph unicode="&#xab;" horiz-adv-x="862" d="M762 88h-162l-190 383l190 383h162l-191 -383zM473 88h-162l-190 383l190 383h162l-190 -383z" />
<glyph unicode="&#xad;" horiz-adv-x="720" d="M606 446h-491v132h491v-132z" />
<glyph unicode="&#xae;" horiz-adv-x="1597" d="M1481 682q0 -139 -54 -265.5t-145 -217.5t-217.5 -145t-265.5 -54t-265.5 54t-217.5 145t-145 217.5t-54 265.5t54 265.5t145 218t217.5 146t265.5 54.5t265.5 -54.5t217.5 -146t145 -218t54 -265.5zM1393 682q0 161 -79.5 298t-216.5 216.5t-298 79.5t-298 -79.5 t-216.5 -216.5t-79.5 -298t79.5 -297.5t216.5 -215.5t298 -79t298 79t216.5 215.5t79.5 297.5zM1069 293h-113l-53 235q-13 57 -43 80t-90 23h-119v-338h-110v778h235q126 0 193 -57.5t67 -151.5q0 -66 -39.5 -117.5t-107.5 -68.5q96 -13 121 -125zM924 856q0 58 -39 91.5 t-103 33.5h-131v-256h131q63 0 102.5 35.5t39.5 95.5z" />
<glyph unicode="&#xaf;" horiz-adv-x="614" d="M514 1212h-414v113h414v-113z" />
<glyph unicode="&#xb0;" horiz-adv-x="647" d="M580 1130q0 -106 -75 -181t-181 -75t-181 75t-75 181t75 181t181 75t181 -75t75 -181zM473 1130q0 62 -43 106t-106 44q-62 0 -106 -44t-44 -106q0 -63 44 -106t106 -43q63 0 106 43t43 106z" />
<glyph unicode="&#xb1;" horiz-adv-x="1079" d="M956 803h-352v-350h-131v350h-350v131h350v350h131v-350h352v-131zM956 84h-833v131h833v-131z" />
<glyph unicode="&#xb2;" horiz-adv-x="937" d="M776 446h-610v80q241 204 339.5 332.5t98.5 249.5q0 70 -45 114t-113 44q-101 0 -180 -72l-82 80q115 100 262 100q132 0 209.5 -72t77.5 -186q0 -137 -89 -261.5t-288 -297.5h420v-111z" />
<glyph unicode="&#xb3;" horiz-adv-x="937" d="M752 686q0 -109 -85 -182.5t-235 -73.5q-171 0 -285 100l80 82q89 -73 197 -73q89 0 141.5 44t52.5 107q0 67 -54 113.5t-136 46.5h-119v111h109q84 0 136 43.5t52 111.5q0 64 -45.5 107t-120.5 43q-103 0 -182 -72l-82 80q111 100 266 100q131 0 210 -70t79 -180 q0 -75 -47 -132.5t-115 -80.5q86 -23 134.5 -84t48.5 -141z" />
<glyph unicode="&#xb4;" horiz-adv-x="509" d="M446 1366l-231 -291h-96l127 291h200z" />
<glyph unicode="&#xb5;" horiz-adv-x="1132" d="M969 0h-158v197q-44 -98 -126 -159t-193 -61q-125 0 -164 91v-492h-164v1366h164v-571q0 -129 53.5 -192.5t144.5 -63.5q129 0 204 93.5t75 250.5v483h164v-942z" />
<glyph unicode="&#xb6;" horiz-adv-x="1128" d="M879 -424h-164v1657h-119v-1657h-164v1038q-154 0 -264.5 110.5t-110.5 264.5q0 155 110.5 266t264.5 111h447v-1790z" />
<glyph unicode="&#xb7;" horiz-adv-x="522" d="M367 442h-211v209h211v-209z" />
<glyph unicode="&#xb8;" horiz-adv-x="641" d="M496 -211q0 -69 -51.5 -115.5t-145.5 -46.5q-102 0 -174 72l53 53q54 -51 115 -51q44 0 69 23t25 51q0 40 -35 66t-104 26l67 133h97l-39 -78q56 -10 89.5 -48t33.5 -85z" />
<glyph unicode="&#xb9;" horiz-adv-x="937" d="M571 446h-125v779q-34 -34 -100.5 -59t-144.5 -36v111q162 19 270 127h100v-922z" />
<glyph unicode="&#xba;" horiz-adv-x="804" d="M717 1034q0 -157 -87.5 -250.5t-226.5 -93.5q-140 0 -227.5 93t-87.5 251q0 159 87.5 252.5t227.5 93.5q139 0 226.5 -93.5t87.5 -252.5zM592 1034q0 119 -52 183.5t-137 64.5q-86 0 -138 -64t-52 -184q0 -118 52 -182t138 -64q85 0 137 64t52 182z" />
<glyph unicode="&#xbb;" horiz-adv-x="862" d="M741 471l-190 -383h-162l191 383l-191 383h162zM453 471l-193 -383h-162l193 383l-193 383h162z" />
<glyph unicode="&#xbc;" horiz-adv-x="1986" d="M1825 221h-146v-221h-123v221h-407v107l399 583h131v-581h146v-109zM1561 1366l-957 -1366h-145l956 1366h146zM571 446h-125v779q-34 -34 -100.5 -59t-144.5 -36v111q162 19 270 127h100v-922zM1556 330v420l-280 -420h280z" />
<glyph unicode="&#xbd;" horiz-adv-x="1986" d="M1847 0h-608v80q239 203 337.5 332.5t98.5 249.5q0 70 -44 113.5t-113 43.5q-103 0 -181 -71l-80 81q115 99 261 99q131 0 208.5 -72t77.5 -186q0 -137 -88.5 -261.5t-285.5 -297.5h417v-111zM1536 1366l-956 -1366h-146l955 1366h147zM571 446h-125v779 q-34 -34 -100.5 -59t-144.5 -36v111q162 19 270 127h100v-922z" />
<glyph unicode="&#xbe;" horiz-adv-x="1986" d="M1825 221h-146v-221h-123v221h-407v107l399 583h131v-581h146v-109zM1561 1366l-957 -1366h-145l956 1366h146zM752 686q0 -109 -85 -182.5t-235 -73.5q-171 0 -285 100l80 82q89 -73 197 -73q89 0 141.5 44t52.5 107q0 67 -54 113.5t-136 46.5h-119v111h109 q84 0 136 43.5t52 111.5q0 64 -45.5 107t-120.5 43q-103 0 -182 -72l-82 80q111 100 266 100q131 0 210 -70t79 -180q0 -75 -47 -132.5t-115 -80.5q86 -23 134.5 -84t48.5 -141zM1556 330v420l-280 -420h280z" />
<glyph unicode="&#xbf;" horiz-adv-x="931" d="M645 1155h-211v211h211v-211zM885 127q-157 -154 -381 -154q-185 0 -302.5 102t-117.5 255q0 67 21 124.5t54 99t73 79t80.5 74t73.5 75t54 90t21 111.5h160q0 -72 -19.5 -132.5t-50.5 -103t-69 -80t-75.5 -71t-68.5 -68.5t-50.5 -81.5t-19.5 -100.5q0 -99 70 -163 t178 -64q143 0 260 117z" />
<glyph unicode="&#xc0;" horiz-adv-x="1177" d="M1169 0h-180l-121 350h-559l-121 -350h-180l494 1366h172zM821 492l-233 671l-232 -671h465zM686 1485h-96l-232 291h201z" />
<glyph unicode="&#xc1;" horiz-adv-x="1177" d="M1169 0h-180l-121 350h-559l-121 -350h-180l494 1366h172zM821 492l-233 671l-232 -671h465zM815 1776l-231 -291h-97l127 291h201z" />
<glyph unicode="&#xc2;" horiz-adv-x="1177" d="M1169 0h-180l-121 350h-559l-121 -350h-180l494 1366h172zM821 492l-233 671l-232 -671h465zM805 1485h-119l-98 196l-96 -196h-119l151 291h129z" />
<glyph unicode="&#xc3;" horiz-adv-x="1177" d="M1169 0h-180l-121 350h-559l-121 -350h-180l494 1366h172zM821 492l-233 671l-232 -671h465zM915 1737q0 -82 -60.5 -137.5t-141.5 -55.5q-48 0 -86 18.5t-58 40t-46.5 40t-53.5 18.5q-35 0 -63.5 -24.5t-28.5 -57.5h-113q0 82 61 137.5t144 55.5q39 0 70.5 -12.5t52 -30 t38.5 -34.5t39 -29.5t44 -12.5q35 0 62.5 25t27.5 59h112z" />
<glyph unicode="&#xc4;" horiz-adv-x="1177" d="M1169 0h-180l-121 350h-559l-121 -350h-180l494 1366h172zM821 492l-233 671l-232 -671h465zM827 1591h-184v185h184v-185zM532 1591h-184v185h184v-185z" />
<glyph unicode="&#xc5;" horiz-adv-x="1177" d="M1169 0h-180l-121 350h-559l-121 -350h-180l494 1366h172zM821 492l-233 671l-232 -671h465zM750 1645q0 -67 -47 -114.5t-113 -47.5q-68 0 -115 47.5t-47 114.5q0 66 47.5 112.5t114.5 46.5q66 0 113 -46.5t47 -112.5zM688 1645q0 40 -29 69t-69 29q-41 0 -69.5 -29 t-28.5 -69q0 -41 28.5 -70t69.5 -29q40 0 69 29t29 70z" />
<glyph unicode="&#xc6;" horiz-adv-x="1589" d="M1464 0h-706v348h-449l-194 -348h-205l799 1366h743v-147h-524v-459h510v-146h-510v-469h536v-145zM758 494v655l-371 -655h371z" />
<glyph unicode="&#xc7;" horiz-adv-x="1208" d="M1020 231l108 -108q-67 -67 -167 -108t-218 -44l-24 -51q56 -9 90.5 -46.5t34.5 -84.5q0 -68 -52.5 -115t-146.5 -47q-102 0 -174 72l53 53q51 -51 117 -51q43 0 68.5 22.5t25.5 51.5q0 40 -35.5 66t-103.5 26l53 106q-257 26 -403 219.5t-146 489.5q0 209 73.5 370 t215.5 252t334 91q123 0 228.5 -41.5t176.5 -110.5l-108 -110q-114 114 -281 114q-214 0 -332 -154.5t-118 -410.5q0 -255 118 -409t332 -154q169 0 281 112z" />
<glyph unicode="&#xc8;" horiz-adv-x="1024" d="M899 0h-713v1366h701v-147h-522v-459h507v-146h-507v-469h534v-145zM606 1485h-96l-231 291h200z" />
<glyph unicode="&#xc9;" horiz-adv-x="1024" d="M899 0h-713v1366h701v-147h-522v-459h507v-146h-507v-469h534v-145zM770 1776l-231 -291h-97l127 291h201z" />
<glyph unicode="&#xca;" horiz-adv-x="1024" d="M899 0h-713v1366h701v-147h-522v-459h507v-146h-507v-469h534v-145zM750 1485h-119l-99 196l-96 -196h-119l152 291h129z" />
<glyph unicode="&#xcb;" horiz-adv-x="1024" d="M899 0h-713v1366h701v-147h-522v-459h507v-146h-507v-469h534v-145zM786 1591h-184v185h184v-185zM492 1591h-185v185h185v-185z" />
<glyph unicode="&#xcc;" horiz-adv-x="550" d="M365 0h-179v1366h179v-1366zM395 1485h-96l-231 291h200z" />
<glyph unicode="&#xcd;" horiz-adv-x="550" d="M365 0h-179v1366h179v-1366zM481 1776l-231 -291h-96l127 291h200z" />
<glyph unicode="&#xce;" horiz-adv-x="550" d="M365 0h-179v1366h179v-1366zM492 1485h-119l-99 196l-96 -196h-119l152 291h129z" />
<glyph unicode="&#xcf;" horiz-adv-x="550" d="M365 0h-179v1366h179v-1366zM514 1591h-184v185h184v-185zM219 1591h-184v185h184v-185z" />
<glyph unicode="&#xd0;" horiz-adv-x="1333" d="M1233 682q0 -315 -184.5 -498.5t-497.5 -183.5h-356v623h-170v120h170v623h356q313 0 497.5 -183.5t184.5 -500.5zM1047 682q0 247 -137 392t-363 145h-174v-476h172v-120h-172v-478h174q226 0 363 145.5t137 391.5z" />
<glyph unicode="&#xd1;" horiz-adv-x="1374" d="M1188 1366v-1366h-217l-619 1120v-1120h-166v1366h217l619 -1120v1120h166zM895 1737h115q0 -81 -61.5 -137t-143.5 -56q-48 0 -86 18.5t-58 40t-46.5 40t-53.5 18.5q-35 0 -62.5 -24.5t-27.5 -57.5h-115q0 82 61 137.5t144 55.5q39 0 71 -12.5t52.5 -30t38.5 -34.5 t38.5 -29.5t43.5 -12.5q35 0 62.5 25t27.5 59z" />
<glyph unicode="&#xd2;" horiz-adv-x="1382" d="M1282 682q0 -208 -70 -369t-204.5 -252.5t-315.5 -91.5t-316 91.5t-205.5 252.5t-70.5 369q0 209 70.5 370t205.5 252t316 91t315.5 -91t204.5 -252t70 -370zM1096 682q0 256 -107.5 410.5t-296.5 154.5q-190 0 -296.5 -154t-106.5 -411q0 -255 106.5 -409t296.5 -154 q189 0 296.5 154t107.5 409zM766 1485h-96l-232 291h201z" />
<glyph unicode="&#xd3;" horiz-adv-x="1382" d="M1282 682q0 -208 -70 -369t-204.5 -252.5t-315.5 -91.5t-316 91.5t-205.5 252.5t-70.5 369q0 209 70.5 370t205.5 252t316 91t315.5 -91t204.5 -252t70 -370zM1096 682q0 256 -107.5 410.5t-296.5 154.5q-190 0 -296.5 -154t-106.5 -411q0 -255 106.5 -409t296.5 -154 q189 0 296.5 154t107.5 409zM942 1776l-231 -291h-97l127 291h201z" />
<glyph unicode="&#xd4;" horiz-adv-x="1382" d="M1282 682q0 -208 -70 -369t-204.5 -252.5t-315.5 -91.5t-316 91.5t-205.5 252.5t-70.5 369q0 209 70.5 370t205.5 252t316 91t315.5 -91t204.5 -252t70 -370zM1096 682q0 256 -107.5 410.5t-296.5 154.5q-190 0 -296.5 -154t-106.5 -411q0 -255 106.5 -409t296.5 -154 q189 0 296.5 154t107.5 409zM911 1485h-118l-99 196l-96 -196h-119l152 291h129z" />
<glyph unicode="&#xd5;" horiz-adv-x="1382" d="M1282 682q0 -208 -70 -369t-204.5 -252.5t-315.5 -91.5t-316 91.5t-205.5 252.5t-70.5 369q0 209 70.5 370t205.5 252t316 91t315.5 -91t204.5 -252t70 -370zM1096 682q0 256 -107.5 410.5t-296.5 154.5q-190 0 -296.5 -154t-106.5 -411q0 -255 106.5 -409t296.5 -154 q189 0 296.5 154t107.5 409zM1016 1737q0 -82 -61 -137.5t-142 -55.5q-48 0 -86 18.5t-58 40t-46.5 40t-53.5 18.5q-35 0 -63.5 -24.5t-28.5 -57.5h-112q0 82 60.5 137.5t143.5 55.5q39 0 70.5 -12.5t52 -30t38.5 -34.5t39 -29.5t44 -12.5q35 0 62.5 25t27.5 59h113z" />
<glyph unicode="&#xd6;" horiz-adv-x="1382" d="M1282 682q0 -208 -70 -369t-204.5 -252.5t-315.5 -91.5t-316 91.5t-205.5 252.5t-70.5 369q0 209 70.5 370t205.5 252t316 91t315.5 -91t204.5 -252t70 -370zM1096 682q0 256 -107.5 410.5t-296.5 154.5q-190 0 -296.5 -154t-106.5 -411q0 -255 106.5 -409t296.5 -154 q189 0 296.5 154t107.5 409zM928 1591h-185v185h185v-185zM633 1591h-184v185h184v-185z" />
<glyph unicode="&#xd7;" horiz-adv-x="1079" d="M829 1053l93 -95l-289 -288l289 -291l-93 -92l-290 288l-289 -288l-94 92l290 291l-290 288l94 95l289 -291z" />
<glyph unicode="&#xd8;" horiz-adv-x="1382" d="M1282 682q0 -208 -70 -369t-204.5 -252.5t-315.5 -91.5q-186 0 -330 101l-88 -138h-131l138 213q-88 94 -134.5 232t-46.5 305q0 209 70.5 370t205.5 252t316 91q190 0 328 -101l88 140h131l-135 -213q178 -197 178 -539zM932 1157q-99 90 -240 90q-190 0 -296.5 -154 t-106.5 -411q0 -237 90 -383zM1096 682q0 235 -92 385l-551 -858q99 -90 239 -90q189 0 296.5 154t107.5 409z" />
<glyph unicode="&#xd9;" horiz-adv-x="1361" d="M1176 1366v-911q0 -227 -135 -356.5t-361 -129.5q-225 0 -359.5 130t-134.5 356v911h176v-911q0 -156 87.5 -246t230.5 -90q144 0 230.5 89.5t86.5 246.5v911h179zM637 1776l125 -291h-96l-230 291h201z" />
<glyph unicode="&#xda;" horiz-adv-x="1361" d="M1176 1366v-911q0 -227 -135 -356.5t-361 -129.5q-225 0 -359.5 130t-134.5 356v911h176v-911q0 -156 87.5 -246t230.5 -90q144 0 230.5 89.5t86.5 246.5v911h179zM723 1776h201l-232 -291h-96z" />
<glyph unicode="&#xdb;" horiz-adv-x="1361" d="M748 1776l151 -291h-119l-96 196l-98 -196h-117l149 291h130zM1176 1366v-911q0 -227 -135 -356.5t-361 -129.5q-225 0 -359.5 130t-134.5 356v911h176v-911q0 -156 87.5 -246t230.5 -90q144 0 230.5 89.5t86.5 246.5v911h179z" />
<glyph unicode="&#xdc;" horiz-adv-x="1361" d="M625 1776v-185h-185v185h185zM920 1776v-185h-185v185h185zM1176 1366v-911q0 -227 -135 -356.5t-361 -129.5q-225 0 -359.5 130t-134.5 356v911h176v-911q0 -156 87.5 -246t230.5 -90q144 0 230.5 89.5t86.5 246.5v911h179z" />
<glyph unicode="&#xdd;" horiz-adv-x="1138" d="M1143 1366l-484 -743v-623h-178v623l-483 743h215l356 -580l357 580h217zM815 1776l-231 -291h-97l127 291h201z" />
<glyph unicode="&#xde;" horiz-adv-x="1128" d="M1038 682q0 -163 -117.5 -274t-299.5 -111h-256v-297h-179v1366h179v-297h256q182 0 299.5 -111.5t117.5 -275.5zM854 682q0 102 -72 172t-180 70h-237v-482h237q108 0 180 69.5t72 170.5z" />
<glyph unicode="&#xdf;" horiz-adv-x="1124" d="M1030 389q0 -187 -115 -298t-317 -111q-40 0 -85.5 13.5t-74.5 31.5v143q72 -51 156 -51q118 0 191 74t73 194q0 121 -72.5 194.5t-191.5 73.5h-131v133h96q102 0 165.5 70t63.5 168q0 99 -64.5 163t-160.5 64q-108 0 -171.5 -75.5t-63.5 -190.5v-985h-164v983 q0 178 111 292t300 114q174 0 280 -97t106 -245q0 -106 -59.5 -195t-156.5 -121q127 -26 206 -116t79 -226z" />
<glyph unicode="&#xe0;" horiz-adv-x="1042" d="M879 0h-158v182q-39 -89 -124.5 -147t-203.5 -58q-135 0 -216 77t-81 194q0 132 103 217.5t293 85.5h223v57q0 110 -57 169t-169 59q-125 0 -233 -91l-98 97q160 123 350 123q174 0 272.5 -93t98.5 -260v-612zM715 403v21h-205q-131 0 -189.5 -44t-58.5 -116 q0 -64 49 -106.5t131 -42.5q114 0 193.5 84t79.5 204zM604 1075h-96l-232 291h201z" />
<glyph unicode="&#xe1;" horiz-adv-x="1042" d="M879 0h-158v182q-39 -89 -124.5 -147t-203.5 -58q-135 0 -216 77t-81 194q0 132 103 217.5t293 85.5h223v57q0 110 -57 169t-169 59q-125 0 -233 -91l-98 97q160 123 350 123q174 0 272.5 -93t98.5 -260v-612zM715 403v21h-205q-131 0 -189.5 -44t-58.5 -116 q0 -64 49 -106.5t131 -42.5q114 0 193.5 84t79.5 204zM760 1366l-232 -291h-96l127 291h201z" />
<glyph unicode="&#xe2;" horiz-adv-x="1042" d="M879 0h-158v182q-39 -89 -124.5 -147t-203.5 -58q-135 0 -216 77t-81 194q0 132 103 217.5t293 85.5h223v57q0 110 -57 169t-169 59q-125 0 -233 -91l-98 97q160 123 350 123q174 0 272.5 -93t98.5 -260v-612zM715 403v21h-205q-131 0 -189.5 -44t-58.5 -116 q0 -64 49 -106.5t131 -42.5q114 0 193.5 84t79.5 204zM725 1075h-119l-98 197l-96 -197h-119l151 291h129z" />
<glyph unicode="&#xe3;" horiz-adv-x="1042" d="M879 0h-158v182q-39 -89 -124.5 -147t-203.5 -58q-135 0 -216 77t-81 194q0 132 103 217.5t293 85.5h223v57q0 110 -57 169t-169 59q-125 0 -233 -91l-98 97q160 123 350 123q174 0 272.5 -93t98.5 -260v-612zM715 403v21h-205q-131 0 -189.5 -44t-58.5 -116 q0 -64 49 -106.5t131 -42.5q114 0 193.5 84t79.5 204zM842 1327q0 -81 -61 -136.5t-142 -55.5q-39 0 -71 12t-52.5 29t-38.5 34t-38.5 29t-43.5 12q-35 0 -63.5 -24.5t-28.5 -57.5h-113q0 82 61 137.5t144 55.5q39 0 70.5 -12.5t52 -30t38.5 -34.5t39 -29.5t44 -12.5 q35 0 62.5 25t27.5 59h113z" />
<glyph unicode="&#xe4;" horiz-adv-x="1042" d="M879 0h-158v182q-39 -89 -124.5 -147t-203.5 -58q-135 0 -216 77t-81 194q0 132 103 217.5t293 85.5h223v57q0 110 -57 169t-169 59q-125 0 -233 -91l-98 97q160 123 350 123q174 0 272.5 -93t98.5 -260v-612zM715 403v21h-205q-131 0 -189.5 -44t-58.5 -116 q0 -64 49 -106.5t131 -42.5q114 0 193.5 84t79.5 204zM756 1182h-185v184h185v-184zM461 1182h-185v184h185v-184z" />
<glyph unicode="&#xe5;" horiz-adv-x="1042" d="M879 0h-158v182q-39 -89 -124.5 -147t-203.5 -58q-135 0 -216 77t-81 194q0 132 103 217.5t293 85.5h223v57q0 110 -57 169t-169 59q-125 0 -233 -91l-98 97q160 123 350 123q174 0 272.5 -93t98.5 -260v-612zM715 403v21h-205q-131 0 -189.5 -44t-58.5 -116 q0 -64 49 -106.5t131 -42.5q114 0 193.5 84t79.5 204zM676 1235q0 -67 -47 -114.5t-113 -47.5q-68 0 -115 47.5t-47 114.5q0 66 47.5 113t114.5 47q66 0 113 -47t47 -113zM614 1235q0 40 -29 69t-69 29q-41 0 -69.5 -29t-28.5 -69q0 -41 28.5 -69.5t69.5 -28.5q40 0 69 28.5 t29 69.5z" />
<glyph unicode="&#xe6;" horiz-adv-x="1632" d="M1534 436h-649q20 -330 313 -330q126 0 217 91l98 -97q-120 -123 -327 -123q-151 0 -256.5 69t-149.5 196q-35 -115 -139.5 -190t-247.5 -75q-134 0 -215.5 77.5t-81.5 201.5q0 138 102.5 222.5t293.5 84.5h223v45q0 110 -57 169t-169 59q-125 0 -233 -91l-98 97 q160 123 350 123q117 0 203.5 -52.5t113.5 -144.5q43 93 127.5 145t196.5 52q178 0 281.5 -110t103.5 -325v-94zM1378 563v41q0 120 -62 181t-167 61q-104 0 -175.5 -74.5t-86.5 -208.5h491zM715 403v33h-205q-248 0 -248 -164q0 -69 46.5 -113t133.5 -44q114 0 193.5 84 t79.5 204z" />
<glyph unicode="&#xe7;" horiz-adv-x="948" d="M872 100q-109 -109 -276 -120l-29 -58q56 -10 90.5 -48t34.5 -85q0 -68 -52 -115t-146 -47q-103 0 -175 72l54 53q54 -51 116 -51q43 0 69 23.5t26 50.5q0 39 -36 65.5t-104 26.5l56 113q-185 19 -297.5 150t-112.5 341q0 227 130 360.5t339 133.5q190 0 313 -123 l-98 -97q-89 89 -203 89q-138 0 -223.5 -98t-85.5 -265t85.5 -264.5t223.5 -97.5q115 0 203 88z" />
<glyph unicode="&#xe8;" horiz-adv-x="1007" d="M909 457h-651q4 -173 84.5 -262t228.5 -89q129 0 220 91l96 -97q-120 -123 -326 -123q-221 0 -346 132.5t-125 361.5q0 220 120 357t312 137q178 0 282.5 -110t104.5 -325v-73zM754 584v20q0 120 -62.5 181t-169.5 61q-106 0 -175 -73t-87 -189h494zM610 1075h-96 l-231 291h200z" />
<glyph unicode="&#xe9;" horiz-adv-x="1007" d="M909 457h-651q4 -173 84.5 -262t228.5 -89q129 0 220 91l96 -97q-120 -123 -326 -123q-221 0 -346 132.5t-125 361.5q0 220 120 357t312 137q178 0 282.5 -110t104.5 -325v-73zM754 584v20q0 120 -62.5 181t-169.5 61q-106 0 -175 -73t-87 -189h494zM764 1366l-232 -291 h-96l127 291h201z" />
<glyph unicode="&#xea;" horiz-adv-x="1007" d="M909 457h-651q4 -173 84.5 -262t228.5 -89q129 0 220 91l96 -97q-120 -123 -326 -123q-221 0 -346 132.5t-125 361.5q0 220 120 357t312 137q178 0 282.5 -110t104.5 -325v-73zM754 584v20q0 120 -62.5 181t-169.5 61q-106 0 -175 -73t-87 -189h494zM739 1075h-118 l-99 197l-96 -197h-119l152 291h129z" />
<glyph unicode="&#xeb;" horiz-adv-x="1007" d="M909 457h-651q4 -173 84.5 -262t228.5 -89q129 0 220 91l96 -97q-120 -123 -326 -123q-221 0 -346 132.5t-125 361.5q0 220 120 357t312 137q178 0 282.5 -110t104.5 -325v-73zM754 584v20q0 120 -62.5 181t-169.5 61q-106 0 -175 -73t-87 -189h494zM754 1182h-185v184 h185v-184zM459 1182h-185v184h185v-184z" />
<glyph unicode="&#xec;" horiz-adv-x="493" d="M330 0h-166v942h166v-942zM356 1075h-96l-231 291h200z" />
<glyph unicode="&#xed;" horiz-adv-x="493" d="M330 0h-166v942h166v-942zM467 1366l-231 -291h-97l127 291h201z" />
<glyph unicode="&#xee;" horiz-adv-x="493" d="M330 0h-166v942h166v-942zM463 1075h-119l-98 197l-96 -197h-119l151 291h129z" />
<glyph unicode="&#xef;" horiz-adv-x="493" d="M330 0h-166v942h166v-942zM485 1182h-184v184h184v-184zM190 1182h-184v184h184v-184z" />
<glyph unicode="&#xf0;" horiz-adv-x="1067" d="M977 434q0 -195 -121 -326t-321 -131q-198 0 -321.5 123t-123.5 308q0 114 50.5 210t147.5 154.5t222 58.5q82 0 154 -36.5t116 -100.5q-65 182 -250 363l-172 -137l-73 90l155 127q-100 81 -213 139l111 113q117 -60 225 -154l193 154l73 -93l-178 -143 q149 -155 237.5 -342.5t88.5 -376.5zM809 408q0 129 -77.5 213t-196.5 84q-120 0 -197.5 -84t-77.5 -213t77.5 -214t197.5 -85q118 0 196 85t78 214z" />
<glyph unicode="&#xf1;" horiz-adv-x="1132" d="M969 0h-164v571q0 129 -54 192.5t-145 63.5q-128 0 -203 -93.5t-75 -250.5v-483h-164v942h158v-197q44 98 128 159t199 61q146 0 233 -94t87 -265v-606zM883 1327q0 -81 -61 -136.5t-142 -55.5q-39 0 -71 12t-52.5 29t-38.5 34t-38.5 29t-43.5 12q-35 0 -63.5 -24.5 t-28.5 -57.5h-113q0 82 61 137.5t144 55.5q39 0 70.5 -12.5t52 -30t38.5 -34.5t39 -29.5t44 -12.5q35 0 62.5 25t27.5 59h113z" />
<glyph unicode="&#xf2;" horiz-adv-x="1067" d="M977 471q0 -227 -122 -360.5t-320 -133.5q-199 0 -322 133.5t-123 360.5t123 360.5t322 133.5q198 0 320 -133.5t122 -360.5zM809 471q0 170 -76.5 266.5t-197.5 96.5q-122 0 -198.5 -96.5t-76.5 -266.5t76.5 -266t198.5 -96q121 0 197.5 96t76.5 266zM621 1075h-97 l-231 291h201z" />
<glyph unicode="&#xf3;" horiz-adv-x="1067" d="M977 471q0 -227 -122 -360.5t-320 -133.5q-199 0 -322 133.5t-123 360.5t123 360.5t322 133.5q198 0 320 -133.5t122 -360.5zM809 471q0 170 -76.5 266.5t-197.5 96.5q-122 0 -198.5 -96.5t-76.5 -266.5t76.5 -266t198.5 -96q121 0 197.5 96t76.5 266zM776 1366 l-231 -291h-96l126 291h201z" />
<glyph unicode="&#xf4;" horiz-adv-x="1067" d="M977 471q0 -227 -122 -360.5t-320 -133.5q-199 0 -322 133.5t-123 360.5t123 360.5t322 133.5q198 0 320 -133.5t122 -360.5zM809 471q0 170 -76.5 266.5t-197.5 96.5q-122 0 -198.5 -96.5t-76.5 -266.5t76.5 -266t198.5 -96q121 0 197.5 96t76.5 266zM750 1075h-119 l-99 197l-96 -197h-119l152 291h129z" />
<glyph unicode="&#xf5;" horiz-adv-x="1067" d="M977 471q0 -227 -122 -360.5t-320 -133.5q-199 0 -322 133.5t-123 360.5t123 360.5t322 133.5q198 0 320 -133.5t122 -360.5zM809 471q0 170 -76.5 266.5t-197.5 96.5q-122 0 -198.5 -96.5t-76.5 -266.5t76.5 -266t198.5 -96q121 0 197.5 96t76.5 266zM860 1327 q0 -81 -61 -136.5t-142 -55.5q-48 0 -85.5 18t-57.5 40t-46.5 40t-53.5 18q-35 0 -63.5 -24.5t-28.5 -57.5h-113q0 82 61 137.5t144 55.5q39 0 70 -12.5t52 -30t39 -34.5t38.5 -29.5t43.5 -12.5q35 0 63 25t28 59h112z" />
<glyph unicode="&#xf6;" horiz-adv-x="1067" d="M977 471q0 -227 -122 -360.5t-320 -133.5q-199 0 -322 133.5t-123 360.5t123 360.5t322 133.5q198 0 320 -133.5t122 -360.5zM809 471q0 170 -76.5 266.5t-197.5 96.5q-122 0 -198.5 -96.5t-76.5 -266.5t76.5 -266t198.5 -96q121 0 197.5 96t76.5 266zM774 1182h-184v184 h184v-184zM479 1182h-184v184h184v-184z" />
<glyph unicode="&#xf7;" horiz-adv-x="1079" d="M631 915h-182v185h182v-185zM956 604h-833v131h833v-131zM631 240h-182v182h182v-182z" />
<glyph unicode="&#xf8;" horiz-adv-x="1067" d="M977 471q0 -227 -122 -360.5t-320 -133.5q-125 0 -222 54l-61 -99h-115l99 156q-146 133 -146 383q0 227 123 360.5t322 133.5q122 0 219 -54l63 99h113l-99 -156q146 -133 146 -383zM809 471q0 149 -64 246l-354 -563q64 -45 144 -45q121 0 197.5 96t76.5 266zM678 788 q-61 46 -143 46q-122 0 -198.5 -96.5t-76.5 -266.5q0 -152 62 -246z" />
<glyph unicode="&#xf9;" horiz-adv-x="1132" d="M969 0h-158v197q-45 -98 -128.5 -159t-199.5 -61q-146 0 -232.5 94t-86.5 265v606h164v-571q0 -129 53.5 -192.5t144.5 -63.5q129 0 204 93.5t75 250.5v483h164v-942zM655 1075h-96l-231 291h200z" />
<glyph unicode="&#xfa;" horiz-adv-x="1132" d="M969 0h-158v197q-45 -98 -128.5 -159t-199.5 -61q-146 0 -232.5 94t-86.5 265v606h164v-571q0 -129 53.5 -192.5t144.5 -63.5q129 0 204 93.5t75 250.5v483h164v-942zM807 1366l-232 -291h-96l127 291h201z" />
<glyph unicode="&#xfb;" horiz-adv-x="1132" d="M969 0h-158v197q-45 -98 -128.5 -159t-199.5 -61q-146 0 -232.5 94t-86.5 265v606h164v-571q0 -129 53.5 -192.5t144.5 -63.5q129 0 204 93.5t75 250.5v483h164v-942zM782 1075h-118l-99 197l-96 -197h-119l152 291h129z" />
<glyph unicode="&#xfc;" horiz-adv-x="1132" d="M969 0h-158v197q-45 -98 -128.5 -159t-199.5 -61q-146 0 -232.5 94t-86.5 265v606h164v-571q0 -129 53.5 -192.5t144.5 -63.5q129 0 204 93.5t75 250.5v483h164v-942zM805 1182h-184v184h184v-184zM510 1182h-184v184h184v-184z" />
<glyph unicode="&#xfd;" horiz-adv-x="909" d="M895 942l-461 -1216q-35 -90 -92.5 -131t-144.5 -41q-77 0 -148 22v133q52 -22 111 -22q93 0 116 63l95 254l-357 938h176l265 -770l264 770h176zM688 1366l-231 -291h-97l127 291h201z" />
<glyph unicode="&#xfe;" horiz-adv-x="1136" d="M1047 471q0 -231 -116 -362.5t-294 -131.5q-110 0 -188.5 57t-120.5 148v-606h-164v1790h164v-606q42 91 120.5 148t188.5 57q178 0 294 -131.5t116 -362.5zM877 471q0 170 -76.5 266.5t-198.5 96.5q-121 0 -197.5 -96.5t-76.5 -266.5t76.5 -266t197.5 -96 q122 0 198.5 96t76.5 266z" />
<glyph unicode="&#xff;" horiz-adv-x="909" d="M895 942l-461 -1216q-35 -90 -92.5 -131t-144.5 -41q-77 0 -148 22v133q52 -22 111 -22q93 0 116 63l95 254l-357 938h176l265 -770l264 770h176zM694 1182h-184v184h184v-184zM399 1182h-184v184h184v-184z" />
<glyph unicode="&#x152;" horiz-adv-x="1933" d="M1808 0h-712v229q-55 -119 -165 -189.5t-253 -70.5q-174 0 -306 91.5t-202 253t-70 368.5q0 208 70 369.5t202 252.5t306 91q143 0 253 -70t165 -190v231h700v-147h-522v-459h508v-146h-508v-469h534v-145zM1096 682q0 256 -107.5 410.5t-296.5 154.5q-190 0 -296.5 -154 t-106.5 -411q0 -255 106.5 -409t296.5 -154q189 0 296.5 154t107.5 409z" />
<glyph unicode="&#x153;" horiz-adv-x="1726" d="M1628 457h-651q4 -173 84.5 -262t228.5 -89q128 0 219 91l97 -97q-120 -123 -326 -123q-138 0 -241 67t-144 183q-45 -117 -141.5 -183.5t-227.5 -66.5q-194 0 -315 133.5t-121 360.5t121 360.5t315 133.5q129 0 227.5 -67t139.5 -183q41 117 134.5 183.5t213.5 66.5 q178 0 282.5 -110t104.5 -325v-73zM1473 584v20q0 120 -62.5 181t-169.5 61q-106 0 -175 -73t-87 -189h494zM809 471q0 170 -76.5 266.5t-197.5 96.5q-122 0 -198.5 -96.5t-76.5 -266.5t76.5 -266t198.5 -96q121 0 197.5 96t76.5 266z" />
<glyph unicode="&#x178;" horiz-adv-x="1138" d="M1143 1366l-484 -743v-623h-178v623l-483 743h215l356 -580l357 580h217zM809 1591h-184v185h184v-185zM514 1591h-184v185h184v-185z" />
<glyph unicode="&#x2c6;" horiz-adv-x="509" d="M471 1075h-119l-98 197l-96 -197h-119l151 291h129z" />
<glyph unicode="&#x2dc;" horiz-adv-x="778" d="M715 1327q0 -81 -61 -136.5t-142 -55.5q-39 0 -71 12t-52.5 29t-38.5 34t-38.5 29t-43.5 12q-35 0 -63.5 -24.5t-28.5 -57.5h-113q0 82 61 137.5t144 55.5q39 0 70.5 -12.5t52 -30t38.5 -34.5t39 -29.5t44 -12.5q35 0 62.5 25t27.5 59h113z" />
<glyph unicode="&#x2000;" horiz-adv-x="902" />
<glyph unicode="&#x2001;" horiz-adv-x="1804" />
<glyph unicode="&#x2002;" horiz-adv-x="902" />
<glyph unicode="&#x2003;" horiz-adv-x="1804" />
<glyph unicode="&#x2004;" horiz-adv-x="601" />
<glyph unicode="&#x2005;" horiz-adv-x="451" />
<glyph unicode="&#x2006;" horiz-adv-x="300" />
<glyph unicode="&#x2007;" horiz-adv-x="300" />
<glyph unicode="&#x2008;" horiz-adv-x="225" />
<glyph unicode="&#x2009;" horiz-adv-x="360" />
<glyph unicode="&#x200a;" horiz-adv-x="100" />
<glyph unicode="&#x2010;" horiz-adv-x="720" d="M606 446h-491v132h491v-132z" />
<glyph unicode="&#x2011;" horiz-adv-x="720" d="M606 446h-491v132h491v-132z" />
<glyph unicode="&#x2012;" horiz-adv-x="720" d="M606 446h-491v132h491v-132z" />
<glyph unicode="&#x2013;" horiz-adv-x="1189" d="M1075 446h-960v132h960v-132z" />
<glyph unicode="&#x2014;" horiz-adv-x="2048" d="M1933 446h-1818v132h1818v-132z" />
<glyph unicode="&#x2018;" horiz-adv-x="516" d="M383 1366l-64 -438h-202l164 438h102z" />
<glyph unicode="&#x2019;" horiz-adv-x="516" d="M399 1366l-163 -438h-103l64 438h202z" />
<glyph unicode="&#x201a;" horiz-adv-x="516" d="M399 211l-163 -438h-103l64 438h202z" />
<glyph unicode="&#x201c;" horiz-adv-x="819" d="M686 1366l-63 -438h-203l164 438h102zM383 1366l-64 -438h-202l164 438h102z" />
<glyph unicode="&#x201d;" horiz-adv-x="819" d="M702 1366l-163 -438h-103l64 438h202zM399 1366l-163 -438h-103l64 438h202z" />
<glyph unicode="&#x201e;" horiz-adv-x="819" d="M702 211l-163 -438h-103l64 438h202zM399 211l-163 -438h-103l64 438h202z" />
<glyph unicode="&#x2022;" horiz-adv-x="616" d="M440 547q0 -55 -38.5 -93t-92.5 -38q-55 0 -93 38t-38 93q0 54 38 92.5t93 38.5q54 0 92.5 -38.5t38.5 -92.5z" />
<glyph unicode="&#x2026;" horiz-adv-x="1564" d="M1409 0h-211v211h211v-211zM887 0h-209v211h209v-211zM367 0h-211v211h211v-211z" />
<glyph unicode="&#x202f;" horiz-adv-x="360" />
<glyph unicode="&#x2039;" horiz-adv-x="571" d="M473 88h-162l-190 383l190 383h162l-190 -383z" />
<glyph unicode="&#x203a;" horiz-adv-x="571" d="M453 471l-193 -383h-162l193 383l-193 383h162z" />
<glyph unicode="&#x205f;" horiz-adv-x="451" />
<glyph unicode="&#x20ac;" horiz-adv-x="1257" d="M1069 231l109 -108q-71 -69 -177 -111.5t-229 -42.5q-241 0 -401 145.5t-205 389.5h-160v88h148q-4 58 -4 90t4 90h-148v90h160q44 244 203 388.5t403 144.5q123 0 229.5 -41.5t176.5 -110.5l-109 -110q-114 114 -281 114q-168 0 -280 -104t-150 -281h533v-90h-549 q-4 -29 -4 -90t4 -90h549v-88h-533q38 -177 150 -281t280 -104q169 0 281 112z" />
<glyph unicode="&#x2122;" horiz-adv-x="837" d="M723 1024h-61v260l-82 -260h-56l-82 260v-260h-63v342h90l82 -258l84 258h88v-342zM330 1309h-101v-285h-67v285h-105v57h273v-57z" />
<glyph unicode="&#x25fc;" horiz-adv-x="942" d="M0 942h942v-942h-942v942z" />
<glyph unicode="&#xfb01;" horiz-adv-x="1193" d="M1040 1182h-184v184h184v-184zM1030 0h-164v942h164v-942zM627 809h-238v-809h-164v809h-194v133h194v199q0 117 67.5 182.5t186.5 65.5q77 0 148 -23v-133q-49 22 -111 22q-67 0 -97 -31t-30 -100v-182h238v-133z" />
<glyph unicode="&#xfb02;" horiz-adv-x="1177" d="M1014 0h-164v1366h164v-1366zM627 809h-238v-809h-164v809h-194v133h194v199q0 117 67.5 182.5t186.5 65.5q77 0 148 -23v-133q-49 22 -111 22q-67 0 -97 -31t-30 -100v-182h238v-133z" />
</font>
</defs>
</svg>
