<?xml version="1.0" standalone="no"?>
<!DOCTYPE svg PUBLIC "-//W3C//DTD SVG 1.1//EN" "http://www.w3.org/Graphics/SVG/1.1/DTD/svg11.dtd" >
<svg xmlns="http://www.w3.org/2000/svg" xmlns:xlink="http://www.w3.org/1999/xlink" version="1.1">
<metadata></metadata>
<defs>
<font id="eau_doucesans_heavy" horiz-adv-x="1173" >
<font-face units-per-em="2048" ascent="1638" descent="-410" />
<missing-glyph horiz-adv-x="477" />
<glyph horiz-adv-x="0" />
<glyph horiz-adv-x="682" />
<glyph unicode=" "  horiz-adv-x="477" />
<glyph unicode="&#x09;" horiz-adv-x="477" />
<glyph unicode="&#xa0;" horiz-adv-x="477" />
<glyph unicode="!" horiz-adv-x="614" d="M506 1366l-82 -901h-234l-81 901h397zM477 0h-340v342h340v-342z" />
<glyph unicode="&#x22;" horiz-adv-x="1024" d="M977 1366l-234 -561h-172l64 561h342zM526 1366l-233 -561h-172l63 561h342z" />
<glyph unicode="#" horiz-adv-x="1161" d="M1120 936h-215l-47 -236h172v-211h-215l-43 -217h-225l43 217h-154l-43 -217h-227l45 217h-170v211h213l47 236h-172v211h217l43 219h225l-45 -219h156l43 219h225l-45 -219h172v-211zM682 936h-156l-47 -236h154z" />
<glyph unicode="$" horiz-adv-x="1028" d="M956 457q0 -148 -100.5 -251t-277.5 -130v-213h-146v207q-110 6 -210 48t-161 103l195 195q82 -86 209 -86q67 0 108 31t41 71q0 32 -28.5 56t-74.5 41.5t-101 36t-110 46.5t-101 65t-74.5 100t-28.5 145q0 133 92 236t244 130v213h146v-205q119 -7 216 -48.5t158 -102.5 l-192 -195q-84 84 -187 84q-67 0 -102 -25t-35 -63q0 -32 28.5 -56t74.5 -41.5t101.5 -35.5t111 -46t101.5 -65.5t74.5 -100t28.5 -144.5z" />
<glyph unicode="%" horiz-adv-x="1884" d="M1817 375q0 -174 -92.5 -281.5t-249.5 -107.5t-249.5 107.5t-92.5 281.5q0 175 92.5 282t249.5 107t249.5 -107t92.5 -282zM1542 1366l-954 -1366h-260l956 1366h258zM752 989q0 -174 -92.5 -281.5t-249.5 -107.5t-249.5 107.5t-92.5 281.5q0 175 92.5 282t249.5 107 t249.5 -107t92.5 -282zM1571 375q0 198 -96 198q-44 0 -70.5 -47t-26.5 -151q0 -103 26.5 -150t70.5 -47q96 0 96 197zM506 989q0 104 -26.5 151.5t-69.5 47.5t-70 -47.5t-27 -151.5q0 -196 97 -196q96 0 96 196z" />
<glyph unicode="&#x26;" horiz-adv-x="1378" d="M1518 0h-433l-77 76q-168 -111 -392 -111q-261 0 -404.5 109t-143.5 280q0 130 65.5 226.5t198.5 171.5q-88 88 -123 156.5t-35 156.5q0 57 28.5 115.5t79.5 107.5t131.5 80t176.5 31q176 0 296 -101t120 -233q0 -94 -48 -176.5t-163 -165.5l176 -174q22 93 22 203h328 q0 -258 -107 -449zM686 1059q0 32 -28 60t-68 28q-41 0 -68.5 -27.5t-27.5 -60.5q0 -39 18.5 -69t71.5 -83q57 42 79.5 76t22.5 76zM807 279l-281 280q-106 -70 -106 -176q0 -69 58.5 -116.5t150.5 -47.5q96 0 178 60z" />
<glyph unicode="'" horiz-adv-x="573" d="M526 1366l-233 -561h-172l63 561h342z" />
<glyph unicode="(" horiz-adv-x="772" d="M764 -61l-307 -103q-139 165 -219 382t-80 464q0 248 80 464.5t219 383.5l307 -103q-129 -164 -197.5 -342.5t-68.5 -402.5t68 -401.5t198 -341.5z" />
<glyph unicode=")" horiz-adv-x="772" d="M614 682q0 -247 -80.5 -464.5t-220.5 -381.5l-305 103q128 165 196 342.5t68 400.5t-68 401.5t-196 343.5l305 103q141 -166 221 -383t80 -465z" />
<glyph unicode="*" horiz-adv-x="956" d="M850 1032l-234 -76l146 -200l-139 -101l-146 199l-143 -199l-139 101l143 200l-234 76l54 164l233 -76v246h172v-246l234 76z" />
<glyph unicode="+" horiz-adv-x="1120" d="M1018 543h-332v-332h-252v332h-332v252h332v331h252v-331h332v-252z" />
<glyph unicode="," horiz-adv-x="587" d="M492 342l-232 -614h-178l70 614h340z" />
<glyph unicode="-" horiz-adv-x="778" d="M676 387h-574v250h574v-250z" />
<glyph unicode="." horiz-adv-x="587" d="M465 0h-342v342h342v-342z" />
<glyph unicode="/" horiz-adv-x="710" d="M676 1501l-408 -1638h-233l407 1638h234z" />
<glyph unicode="0" d="M1100 682q0 -341 -137 -521.5t-375 -180.5t-375 180.5t-137 521.5t137 522.5t375 181.5t375 -181.5t137 -522.5zM764 682q0 163 -22 261.5t-59.5 137.5t-94.5 39q-58 0 -96 -39t-60 -137.5t-22 -261.5q0 -162 22 -260t60 -137t96 -39q87 0 131.5 99t44.5 337z" />
<glyph unicode="1" d="M813 0h-328v1024q-54 -54 -156.5 -93t-205.5 -50v284q104 13 208 68t181 133h301v-1366z" />
<glyph unicode="2" d="M1059 0h-977v219q309 229 448.5 405.5t139.5 317.5q0 83 -42 126.5t-116 43.5q-114 0 -219 -90l-207 207q197 164 426 164q227 0 359.5 -120t132.5 -304q0 -177 -116.5 -350.5t-314.5 -331.5h486v-287z" />
<glyph unicode="3" d="M1051 385q0 -87 -33.5 -161t-98 -130.5t-167.5 -88.5t-234 -32q-142 0 -263.5 45.5t-199.5 118.5l205 205q116 -90 232 -90q107 0 158.5 41.5t51.5 105.5q0 63 -56 100.5t-140 37.5h-178v286h178q93 0 141.5 41t48.5 111q0 62 -46.5 99.5t-137.5 37.5q-126 0 -223 -90 l-207 207q82 72 195.5 118t240.5 46q225 0 362.5 -111.5t137.5 -277.5q0 -106 -60 -187.5t-159 -120.5q106 -26 179 -111.5t73 -199.5z" />
<glyph unicode="4" d="M1133 272h-218v-272h-315v272h-573v308l532 786h356v-813h218v-281zM600 553v430l-278 -430h278z" />
<glyph unicode="5" d="M1059 438q0 -203 -144.5 -334t-373.5 -131q-141 0 -258 45t-195 119l207 205q116 -90 231 -90q96 0 153.5 53t57.5 133q0 85 -59.5 139t-151.5 54q-54 0 -110 -39l-252 127v647h805v-287h-477v-213q47 21 137 21q182 0 306 -125.5t124 -323.5z" />
<glyph unicode="6" d="M1106 428q0 -92 -35.5 -175t-99 -145t-159 -98.5t-208.5 -36.5q-248 0 -392 185t-144 524q0 332 162 521.5t446 189.5q128 0 234.5 -44.5t181.5 -119.5l-205 -207q-90 90 -217 90q-116 0 -193.5 -91.5t-81.5 -268.5q114 120 283 120q113 0 210 -54t157.5 -157t60.5 -233z M784 428q0 88 -50.5 141.5t-129.5 53.5q-78 0 -129 -53.5t-51 -141.5t51 -142.5t129 -54.5q79 0 129.5 54.5t50.5 142.5z" />
<glyph unicode="7" d="M1071 1147q-100 -143 -166 -253.5t-128 -248t-104.5 -294t-72.5 -351.5h-354q34 190 78 346t100 285.5t111 229t133 218.5h-580v287h983v-219z" />
<glyph unicode="8" d="M1120 385q0 -179 -142 -295.5t-390 -116.5q-249 0 -391 116.5t-142 295.5q0 104 59.5 189.5t153.5 119.5q-72 30 -126 111t-54 180q0 116 67.5 210.5t182 146t250.5 51.5q135 0 248.5 -51.5t181 -146t67.5 -210.5q0 -99 -53 -180t-125 -111q92 -34 152.5 -119.5 t60.5 -189.5zM774 977q0 73 -49.5 124.5t-136.5 51.5q-88 0 -138.5 -51.5t-50.5 -124.5q0 -72 50.5 -123t138.5 -51q87 0 136.5 51t49.5 123zM784 399q0 78 -52 129.5t-144 51.5q-93 0 -146 -51.5t-53 -129.5q0 -79 52.5 -129.5t146.5 -50.5q92 0 144 50.5t52 129.5z" />
<glyph unicode="9" d="M1106 682q0 -331 -162 -520t-446 -189q-126 0 -234 45t-182 119l207 205q90 -90 217 -90q115 0 192.5 91.5t81.5 268.5q-118 -118 -284 -118q-113 0 -210 54t-157.5 157t-60.5 233q0 92 35.5 175t99 145t158.5 98.5t208 36.5q249 0 393 -185.5t144 -525.5zM750 938 q0 88 -51 141.5t-130 53.5t-129.5 -53.5t-50.5 -141.5t50.5 -141.5t129.5 -53.5t130 53.5t51 141.5z" />
<glyph unicode=":" horiz-adv-x="587" d="M465 600h-342v342h342v-342zM465 0h-342v342h342v-342z" />
<glyph unicode=";" horiz-adv-x="587" d="M465 600h-342v342h342v-342zM492 342l-232 -614h-178l70 614h340z" />
<glyph unicode="&#x3c;" horiz-adv-x="681" d="M604 88h-317l-191 383l191 383h317l-192 -383z" />
<glyph unicode="=" horiz-adv-x="1120" d="M1018 752h-916v249h916v-249zM1018 336h-916v252h916v-252z" />
<glyph unicode="&#x3e;" horiz-adv-x="681" d="M588 471l-193 -383h-315l190 383l-190 383h315z" />
<glyph unicode="?" horiz-adv-x="1009" d="M956 1024q0 -73 -26 -136t-64.5 -105.5t-83.5 -84t-83.5 -74t-64.5 -74t-26 -85.5h-315q0 75 30.5 137.5t73.5 106t86.5 83.5t74 88.5t30.5 102.5q0 58 -40.5 93.5t-111.5 35.5q-107 0 -203 -96l-206 207q78 77 191 123.5t247 46.5q220 0 355.5 -107.5t135.5 -261.5z M621 0h-340v342h340v-342z" />
<glyph unicode="@" horiz-adv-x="1583" d="M1174 147q-81 -83 -211 -132.5t-281 -49.5q-280 0 -453.5 180t-173.5 467q0 114 35 227t106.5 214t169 178t233 122.5t288.5 45.5q187 0 334 -77t228 -213.5t81 -307.5q0 -135 -56.5 -254t-145 -187.5t-181.5 -68.5q-84 0 -134.5 47.5t-43.5 120.5q-40 -78 -120.5 -125 t-176.5 -47q-103 0 -184.5 89.5t-81.5 237.5q0 120 57.5 224.5t150.5 164.5t195 60q61 0 109.5 -26.5t70.5 -71.5l12 82h250l-88 -500q-14 -76 29 -76q53 0 111.5 93t58.5 224q0 200 -129.5 320.5t-345.5 120.5q-116 0 -219 -35.5t-177.5 -96.5t-129.5 -140t-82 -167.5 t-27 -177.5q0 -220 120 -347.5t310 -127.5q108 0 206.5 37.5t160.5 97.5zM942 721q0 69 -28 104t-76 35q-69 0 -120.5 -68t-51.5 -163q0 -71 28 -105.5t76 -34.5q69 0 120.5 68.5t51.5 163.5z" />
<glyph unicode="A" horiz-adv-x="1284" d="M1325 0h-356l-90 287h-473l-93 -287h-354l498 1366h368zM791 559l-150 465l-147 -465h297z" />
<glyph unicode="B" horiz-adv-x="1228" d="M1161 362q0 -68 -28.5 -132.5t-80 -116t-132.5 -82.5t-177 -31h-606v1366h545q213 0 339 -98t126 -250q0 -112 -71 -209t-197 -129q129 -21 205.5 -103.5t76.5 -214.5zM795 956q0 59 -42.5 103.5t-111.5 44.5h-164v-295h164q70 0 112 43t42 104zM809 408q0 63 -40.5 103 t-119.5 40h-172v-289h172q78 0 119 41.5t41 104.5z" />
<glyph unicode="C" horiz-adv-x="1243" d="M1229 137q-73 -75 -196.5 -123.5t-268.5 -48.5q-322 0 -509 194t-187 523t187 523t509 194q145 0 268 -48t197 -122l-207 -207q-87 90 -217 90q-170 0 -269.5 -116.5t-99.5 -313.5t99.5 -313.5t269.5 -116.5q127 0 217 90z" />
<glyph unicode="D" horiz-adv-x="1366" d="M1296 682q0 -325 -192.5 -503.5t-515.5 -178.5h-451v1366h451q212 0 370.5 -77.5t248 -233t89.5 -373.5zM928 682q0 184 -95.5 290.5t-259.5 106.5h-81v-792h81q165 0 260 105.5t95 289.5z" />
<glyph unicode="E" horiz-adv-x="1030" d="M936 0h-799v1366h785v-287h-430v-256h415v-286h-415v-250h444v-287z" />
<glyph unicode="F" horiz-adv-x="983" d="M936 1079h-444v-256h430v-286h-430v-537h-355v1366h799v-287z" />
<glyph unicode="G" horiz-adv-x="1325" d="M1249 1229l-207 -207q-40 41 -102 65.5t-127 24.5q-178 0 -277.5 -117t-99.5 -313q0 -199 97.5 -310.5t238.5 -111.5q62 0 115 29v223h-185v287h541v-662q-166 -172 -479 -172t-504.5 195.5t-191.5 521.5q0 209 84 370t247.5 254t384.5 93q145 0 268 -48t197 -122z" />
<glyph unicode="H" horiz-adv-x="1366" d="M1229 0h-355v537h-382v-537h-355v1366h355v-543h382v543h355v-1366z" />
<glyph unicode="I" horiz-adv-x="628" d="M492 0h-355v1366h355v-1366z" />
<glyph unicode="J" horiz-adv-x="1024" d="M887 436q0 -218 -126 -344.5t-372 -126.5q-124 0 -219 44.5t-184 133.5l207 207q50 -50 89.5 -74t86.5 -24q72 0 117.5 48.5t45.5 123.5v942h355v-930z" />
<glyph unicode="K" horiz-adv-x="1316" d="M1366 0h-430l-444 635v-635h-355v1366h355v-608l423 608h431l-512 -670z" />
<glyph unicode="L" horiz-adv-x="935" d="M936 0h-799v1366h355v-1079h444v-287z" />
<glyph unicode="M" horiz-adv-x="1816" d="M1679 0h-321v1034l-242 -1034h-418l-241 1034v-1034h-320v1366h533l237 -1024l240 1024h532v-1366z" />
<glyph unicode="N" horiz-adv-x="1419" d="M1284 0h-424l-395 881v-881h-328v1366h422l397 -881v881h328v-1366z" />
<glyph unicode="O" horiz-adv-x="1433" d="M1366 682q0 -326 -178 -521.5t-471 -195.5t-471 195.5t-178 521.5q0 327 178 522t471 195t471 -195t178 -522zM997 682q0 203 -75.5 316.5t-204.5 113.5t-205 -113.5t-76 -316.5q0 -202 76 -316t205 -114t204.5 114t75.5 316z" />
<glyph unicode="P" horiz-adv-x="1181" d="M1153 936q0 -176 -134.5 -301t-336.5 -125h-190v-510h-355v1366h545q202 0 336.5 -126t134.5 -304zM793 936q0 59 -44 101t-114 42h-143v-282h143q70 0 114 40t44 99z" />
<glyph unicode="Q" horiz-adv-x="1433" d="M1458 170l-237 -238l-213 107q-139 -74 -291 -74q-293 0 -471 195.5t-178 521.5q0 327 178 522t471 195t471 -195t178 -522q0 -230 -113 -410zM997 682q0 203 -75.5 316.5t-204.5 113.5t-205 -113.5t-76 -316.5q0 -202 76 -316t205 -114t204.5 114t75.5 316z" />
<glyph unicode="R" horiz-adv-x="1269" d="M1223 0h-377l-72 367q-17 84 -56 115.5t-122 31.5h-104v-514h-355v1366h557q225 0 348 -113.5t123 -281.5q0 -107 -66 -201t-179 -125q166 -29 208 -217zM801 940q0 64 -45.5 105.5t-116.5 41.5h-147v-294h147q72 0 117 40.5t45 106.5z" />
<glyph unicode="S" horiz-adv-x="1091" d="M1051 395q0 -186 -151 -308t-398 -122q-289 0 -461 172l207 205q42 -42 107 -69t134 -27q89 0 141 39t52 98q0 34 -20.5 60t-56 43.5t-81 34t-95.5 34.5t-100 39.5t-95.5 55.5t-81 77.5t-56 109t-20.5 146.5q0 79 36 154t100.5 133t161 93.5t208.5 35.5q147 0 266.5 -47 t195.5 -123l-206 -207q-38 40 -99.5 69t-122.5 29q-81 0 -126.5 -36.5t-45.5 -86.5q0 -34 21 -60.5t56 -44.5t80.5 -34t96 -34t100.5 -40t95.5 -56t80.5 -77.5t56 -109t21 -146.5z" />
<glyph unicode="T" horiz-adv-x="1105" d="M1106 1079h-375v-1079h-356v1079h-375v287h1106v-287z" />
<glyph unicode="U" horiz-adv-x="1378" d="M1243 471q0 -231 -149.5 -368.5t-403.5 -137.5q-255 0 -404 137.5t-149 368.5v895h355v-895q0 -104 55.5 -161.5t142.5 -57.5q85 0 141 58t56 161v895h356v-895z" />
<glyph unicode="V" horiz-adv-x="1284" d="M1325 1366l-500 -1366h-368l-498 1366h375l307 -983l307 983h377z" />
<glyph unicode="W" horiz-adv-x="1787" d="M1817 1366l-322 -1366h-426l-174 981l-176 -981h-426l-320 1366h357l186 -981l174 981h408l174 -981l186 981h359z" />
<glyph unicode="X" horiz-adv-x="1325" d="M1331 0h-430l-239 477l-238 -477h-430l430 705l-404 661h424l218 -434l217 434h426l-404 -661z" />
<glyph unicode="Y" horiz-adv-x="1243" d="M1290 1366l-491 -813v-553h-355v553l-491 813h430l238 -479l239 479h430z" />
<glyph unicode="Z" horiz-adv-x="1079" d="M1024 0h-969v205l492 874h-479v287h942v-205l-492 -874h506v-287z" />
<glyph unicode="[" horiz-adv-x="819" d="M723 -137h-559v1638h559v-237h-258v-1162h258v-239z" />
<glyph unicode="\" horiz-adv-x="710" d="M676 -137h-234l-407 1638h233z" />
<glyph unicode="]" horiz-adv-x="819" d="M655 -137h-559v239h258v1162h-258v237h559v-1638z" />
<glyph unicode="^" horiz-adv-x="614" d="M592 1075h-205l-80 162l-80 -162h-204l157 291h254z" />
<glyph unicode="_" horiz-adv-x="819" d="M819 0h-819v205h819v-205z" />
<glyph unicode="`" horiz-adv-x="614" d="M530 1075h-165l-289 291h358z" />
<glyph unicode="a" horiz-adv-x="1091" d="M969 0h-314v129q-95 -156 -286 -156q-147 0 -230.5 80t-83.5 199q0 134 105.5 217.5t310.5 83.5h170v35q0 60 -41 97.5t-115 37.5q-98 0 -188 -74l-180 185q184 135 415 135q191 0 314 -105t123 -276v-588zM641 354v35h-123q-67 0 -101 -27.5t-34 -68.5q0 -39 29 -66.5 t80 -27.5q68 0 108.5 40t40.5 115z" />
<glyph unicode="b" horiz-adv-x="1187" d="M1126 471q0 -120 -35.5 -216.5t-95.5 -157t-135 -92.5t-158 -32q-82 0 -150.5 40t-115.5 110v-123h-313v1366h328v-532q38 59 108 97t152 38t156 -32t132 -92.5t92.5 -157t34.5 -216.5zM793 471q0 123 -50 184.5t-122 61.5q-70 0 -120 -61.5t-50 -184.5q0 -122 50 -184 t120 -62q71 0 121.5 62t50.5 184z" />
<glyph unicode="c" horiz-adv-x="983" d="M956 109q-59 -59 -156.5 -97.5t-211.5 -38.5q-152 0 -271.5 60.5t-187.5 174.5t-68 263t68 263t187.5 174.5t271.5 60.5q114 0 211.5 -38t156.5 -97l-182 -185q-68 68 -153 68q-92 0 -155 -66.5t-63 -179.5t63 -179.5t155 -66.5q85 0 153 68z" />
<glyph unicode="d" horiz-adv-x="1187" d="M1065 0h-313v123q-47 -70 -116 -110t-151 -40q-83 0 -158 32t-135 92.5t-95.5 157t-35.5 216.5t34.5 216.5t93 157t132.5 92.5t156 32t152 -38t108 -97v532h328v-1366zM737 471q0 123 -50 184.5t-120 61.5q-72 0 -122 -61.5t-50 -184.5q0 -122 50.5 -184t121.5 -62 q70 0 120 62t50 184z" />
<glyph unicode="e" horiz-adv-x="1064" d="M983 403h-594q33 -184 211 -184q114 0 188 74l181 -184q-136 -136 -375 -136q-243 0 -388 137t-145 361q0 99 35 190t96 159t151.5 108.5t195.5 40.5q212 0 328 -125.5t116 -366.5v-74zM676 600v14q0 138 -137 138q-114 0 -148 -152h285z" />
<glyph unicode="f" horiz-adv-x="813" d="M778 690h-246v-690h-327v690h-191v252h191v137q0 135 96.5 224.5t251.5 89.5q114 0 225 -27v-254q-67 29 -131 29q-115 0 -115 -103v-96h246v-252z" />
<glyph unicode="g" horiz-adv-x="1187" d="M1065 20q0 -207 -143 -339t-396 -132q-133 0 -247 44.5t-162 93.5l180 182q33 -31 89 -52.5t120 -21.5q231 0 231 225v89q-38 -59 -108 -97.5t-152 -38.5t-156 32t-132.5 92.5t-93 157t-34.5 216.5t35.5 216.5t95.5 157t135 92.5t158 32q82 0 151 -40t116 -110v123h313 v-922zM737 471q0 123 -50 184.5t-120 61.5q-72 0 -122 -61.5t-50 -184.5t50 -184.5t122 -61.5q70 0 120 61.5t50 184.5z" />
<glyph unicode="h" horiz-adv-x="1214" d="M1092 0h-328v498q0 204 -150 204q-84 0 -123.5 -58.5t-39.5 -192.5v-451h-328v1366h328v-547q95 150 272 150q164 0 266.5 -109.5t102.5 -286.5v-573z" />
<glyph unicode="i" horiz-adv-x="573" d="M451 1092h-328v274h328v-274zM451 0h-328v942h328v-942z" />
<glyph unicode="j" horiz-adv-x="593" d="M471 1092h-328v274h328v-274zM471 -137q0 -135 -96.5 -224.5t-251.5 -89.5q-114 0 -225 27v254q67 -29 131 -29q114 0 114 103v1038h328v-1079z" />
<glyph unicode="k" horiz-adv-x="1105" d="M1133 0h-396l-286 410v-410h-328v1366h328v-823l278 399h377l-367 -455z" />
<glyph unicode="l" horiz-adv-x="573" d="M451 0h-328v1366h328v-1366z" />
<glyph unicode="m" horiz-adv-x="1746" d="M1624 0h-328v498q0 115 -30 159.5t-92 44.5q-59 0 -97.5 -58.5t-38.5 -166.5v-477h-327v498q0 114 -30.5 159t-92.5 45q-59 0 -98 -58.5t-39 -166.5v-477h-328v942h313v-145q34 78 100.5 125t159.5 47q104 0 186 -54t119 -145q94 199 283 199q148 0 244 -105.5t96 -290.5 v-573z" />
<glyph unicode="n" horiz-adv-x="1214" d="M1092 0h-328v498q0 204 -150 204q-84 0 -123.5 -58.5t-39.5 -192.5v-451h-328v942h313v-143q44 78 118.5 124t168.5 46q164 0 266.5 -109.5t102.5 -286.5v-573z" />
<glyph unicode="o" horiz-adv-x="1132" d="M1071 471q0 -225 -139.5 -361.5t-364.5 -136.5t-365.5 136.5t-140.5 361.5t140.5 361.5t365.5 136.5t364.5 -136.5t139.5 -361.5zM737 471q0 123 -50 184.5t-120 61.5q-72 0 -122 -61.5t-50 -184.5q0 -122 50.5 -184t121.5 -62q70 0 120 62t50 184z" />
<glyph unicode="p" horiz-adv-x="1187" d="M1126 471q0 -120 -34.5 -216.5t-92.5 -157t-132 -92.5t-156 -32t-152 38.5t-108 97.5v-533h-328v1366h313v-123q47 70 115.5 110t150.5 40q83 0 158 -32t135 -92.5t95.5 -157t35.5 -216.5zM793 471q0 122 -50.5 184t-121.5 62q-70 0 -120 -62t-50 -184q0 -123 50 -184.5 t120 -61.5q72 0 122 61.5t50 184.5z" />
<glyph unicode="q" horiz-adv-x="1187" d="M1065 -424h-328v533q-38 -59 -108 -97.5t-152 -38.5t-156 32t-132.5 92.5t-93 157t-34.5 216.5t35.5 216.5t95.5 157t135 92.5t158 32q82 0 151 -40t116 -110v123h313v-1366zM737 471q0 122 -50 184t-120 62q-71 0 -121.5 -62t-50.5 -184q0 -123 50 -184.5t122 -61.5 q70 0 120 61.5t50 184.5z" />
<glyph unicode="r" horiz-adv-x="845" d="M819 678q-70 18 -137 18q-124 0 -177.5 -62t-53.5 -204v-430h-328v942h313v-158q89 185 301 185q44 0 82 -6v-285z" />
<glyph unicode="s" horiz-adv-x="894" d="M834 834l-183 -185q-85 82 -174 82q-38 0 -58 -16t-20 -39q0 -20 24 -36.5t62.5 -30t84.5 -29.5t92.5 -40.5t85 -56t62.5 -82t24 -114.5q0 -137 -109.5 -225.5t-314.5 -88.5q-220 0 -375 136l180 182q41 -37 95.5 -58.5t105.5 -21.5q46 0 70 16.5t24 38.5t-24 38.5 t-62 30.5t-84.5 29t-93 39.5t-84.5 57t-62 86.5t-24 123q0 117 105 208t284 91q110 0 206.5 -37t162.5 -98z" />
<glyph unicode="t" horiz-adv-x="845" d="M778 690h-246v-362q0 -103 115 -103q69 0 131 27v-252q-111 -27 -225 -27q-156 0 -252 89t-96 225v403h-191v252h191v287h327v-287h246v-252z" />
<glyph unicode="u" horiz-adv-x="1214" d="M1092 0h-314v143q-44 -78 -118 -124t-168 -46q-164 0 -266.5 109.5t-102.5 286.5v573h328v-498q0 -204 149 -204q85 0 124.5 59t39.5 193v450h328v-942z" />
<glyph unicode="v" horiz-adv-x="1024" d="M1051 942l-369 -942h-340l-369 942h355l184 -627l184 627h355z" />
<glyph unicode="w" horiz-adv-x="1515" d="M1530 942l-246 -942h-389l-137 649l-123 -649h-404l-245 942h307l143 -682l144 682h356l143 -682l144 682h307z" />
<glyph unicode="x" horiz-adv-x="1024" d="M1024 0h-379l-133 281l-133 -281h-379l326 485l-306 457h369l123 -260l123 260h354l-291 -457z" />
<glyph unicode="y" horiz-adv-x="1024" d="M1051 942l-437 -1114q-59 -149 -137.5 -214t-189.5 -65q-115 0 -226 27v254q67 -29 132 -29q87 0 108 58l45 127l-373 956h349l190 -649l190 649h349z" />
<glyph unicode="z" horiz-adv-x="962" d="M887 0h-811v184l360 506h-348v252h786v-190l-362 -500h375v-252z" />
<glyph unicode="{" horiz-adv-x="804" d="M764 -137q-102 -27 -219 -27q-122 0 -197.5 86.5t-75.5 214.5v258q0 62 -44 107t-105 45h-55v272h55q61 0 105 44t44 106v260q0 126 75.5 213.5t197.5 87.5q120 0 219 -29v-237q-55 20 -102 20q-40 0 -64.5 -27t-24.5 -65v-264q0 -104 -48.5 -168.5t-141.5 -77.5 q92 -12 141 -77t49 -169v-262q0 -39 24.5 -65.5t64.5 -26.5q52 0 102 18v-237z" />
<glyph unicode="|" horiz-adv-x="628" d="M424 -424h-219v1790h219v-1790z" />
<glyph unicode="}" horiz-adv-x="804" d="M737 547h-55q-61 0 -105.5 -45t-44.5 -107v-258q0 -128 -74.5 -214.5t-197.5 -86.5q-117 0 -219 27v237q49 -18 102 -18q41 0 64.5 26t23.5 66v262q0 104 49.5 169t143.5 77q-94 13 -143.5 77.5t-49.5 168.5v264q0 39 -23.5 65.5t-64.5 26.5q-47 0 -102 -20v237 q99 29 219 29q123 0 197.5 -87t74.5 -214v-260q0 -61 44 -105.5t106 -44.5h55v-272z" />
<glyph unicode="~" horiz-adv-x="862" d="M793 578q-7 -7 -27.5 -28t-27.5 -27.5t-25 -23t-28 -22.5t-28 -16.5t-33 -14t-35 -7t-42 -3.5q-46 0 -87 17t-64.5 37.5t-46.5 37.5t-36 17t-29 -10.5t-27.5 -22t-27 -29t-20.5 -22.5l-141 137q42 41 72.5 72.5t73.5 51t99 19.5q47 0 88.5 -17t65 -37t45.5 -37t35 -17 t29.5 10.5t28 22t28 29.5t20.5 22z" />
<glyph unicode="&#xa1;" horiz-adv-x="614" d="M477 1024h-340v342h340v-342zM506 0h-397l81 901h234z" />
<glyph unicode="&#xa2;" horiz-adv-x="983" d="M956 322q-50 -50 -129 -87t-172 -47v-188h-143v188q-201 24 -326 157t-125 337q0 206 124.5 339t326.5 157v188h143v-188q93 -10 172 -47t129 -87l-182 -182q-66 66 -153 66q-92 0 -155 -66.5t-63 -179.5t63 -179.5t155 -66.5q85 0 153 68z" />
<glyph unicode="&#xa3;" horiz-adv-x="1161" d="M1071 1223l-205 -207q-49 49 -89.5 72.5t-86.5 23.5q-73 0 -122.5 -48t-49.5 -122v-231h193v-144h-193v-280h533v-287h-990v287h117v280h-117v144h117v217q0 220 123 345.5t369 125.5q124 0 218.5 -44t182.5 -132z" />
<glyph unicode="&#xa5;" horiz-adv-x="1243" d="M1290 1366l-375 -618h197v-144h-283l-30 -51v-72h313v-143h-313v-338h-355v338h-315v143h315v72l-30 51h-285v144h197l-373 618h430l238 -479l239 479h430z" />
<glyph unicode="&#xa6;" horiz-adv-x="628" d="M424 784h-219v717h219v-717zM424 -137h-219v717h219v-717z" />
<glyph unicode="&#xa7;" horiz-adv-x="1085" d="M989 553q0 -100 -59.5 -188.5t-165.5 -128.5q90 -45 141 -126t51 -186q0 -155 -122.5 -265t-315.5 -110q-132 0 -242 43t-178 111l195 193q84 -84 184 -84q66 0 101.5 25.5t35.5 62.5q0 28 -22.5 51.5t-58.5 40t-82.5 35.5t-95.5 37.5t-95.5 48t-82.5 65t-58.5 90 t-22.5 121.5q0 100 60 189t166 129q-90 45 -141.5 125.5t-51.5 185.5q0 155 122.5 265t315.5 110q132 0 242 -43t178 -111l-194 -192q-83 83 -185 83q-66 0 -101.5 -25.5t-35.5 -62.5q0 -28 22.5 -51.5t58.5 -40t82.5 -35.5t95.5 -37.5t95.5 -48t82.5 -65t58.5 -90 t22.5 -121.5zM655 492q0 68 -73 94q-66 0 -109 -34t-43 -81q0 -68 74 -94q66 0 108.5 34t42.5 81z" />
<glyph unicode="&#xa8;" horiz-adv-x="600" d="M621 1092h-267v274h267v-274zM246 1092h-266v274h266v-274z" />
<glyph unicode="&#xa9;" horiz-adv-x="1597" d="M1481 682q0 -139 -54 -265.5t-145 -217.5t-217.5 -145t-265.5 -54t-265.5 54t-217.5 145t-145 217.5t-54 265.5t54 265.5t145 218t217.5 146t265.5 54.5t265.5 -54.5t217.5 -146t145 -218t54 -265.5zM1331 682q0 145 -71 267.5t-193.5 193.5t-267.5 71t-268 -71 t-194 -193.5t-71 -267.5q0 -144 71 -266.5t194 -194t268 -71.5t267.5 71.5t193.5 194t71 266.5zM1087 371q-42 -42 -112 -69.5t-152 -27.5q-184 0 -289.5 110t-105.5 298t105.5 299t289.5 111q82 0 151.5 -28t112.5 -71l-116 -116q-51 51 -125 51q-96 0 -152.5 -66.5 t-56.5 -179.5t56 -178.5t153 -65.5q77 0 125 51z" />
<glyph unicode="&#xaa;" horiz-adv-x="813" d="M702 707h-221v90q-69 -111 -200 -111q-102 0 -161 57t-59 140q0 94 74 152.5t217 58.5h121v22q0 43 -29 69.5t-82 26.5q-67 0 -131 -51l-127 127q129 96 291 96q135 0 221 -73.5t86 -194.5v-409zM473 954v25h-86q-48 0 -72 -19.5t-24 -48.5q0 -28 20.5 -47.5t55.5 -19.5 q47 0 76.5 29t29.5 81z" />
<glyph unicode="&#xab;" horiz-adv-x="1140" d="M1061 88h-318l-190 383l190 383h318l-191 -383zM604 88h-317l-191 383l191 383h317l-192 -383z" />
<glyph unicode="&#xad;" horiz-adv-x="778" d="M676 387h-574v250h574v-250z" />
<glyph unicode="&#xae;" horiz-adv-x="1597" d="M1481 682q0 -139 -54 -265.5t-145 -217.5t-217.5 -145t-265.5 -54t-265.5 54t-217.5 145t-145 217.5t-54 265.5t54 265.5t145 218t217.5 146t265.5 54.5t265.5 -54.5t217.5 -146t145 -218t54 -265.5zM1331 682q0 145 -71 267.5t-193.5 193.5t-267.5 71t-268 -71 t-194 -193.5t-71 -267.5q0 -144 71 -266.5t194 -194t268 -71.5t267.5 71.5t193.5 194t71 266.5zM1128 293h-215l-41 211q-9 47 -31 64.5t-69 17.5h-61v-293h-201v778h317q129 0 199 -64t70 -159q0 -61 -38.5 -114.5t-103.5 -71.5q96 -17 121 -123zM889 829q0 35 -26.5 59.5 t-65.5 24.5h-86v-168h86q40 0 66 23t26 61z" />
<glyph unicode="&#xaf;" horiz-adv-x="614" d="M547 1161h-479v205h479v-205z" />
<glyph unicode="&#xb0;" horiz-adv-x="737" d="M670 1085q0 -125 -88 -213t-213 -88t-213 88t-88 213t88 213t213 88t213 -88t88 -213zM477 1085q0 44 -32 76.5t-76 32.5t-76.5 -32.5t-32.5 -76.5t32.5 -76t76.5 -32t76 32t32 76z" />
<glyph unicode="&#xb1;" horiz-adv-x="1120" d="M1018 741h-332v-331h-252v331h-332v252h332v332h252v-332h332v-252zM1018 25h-916v251h916v-251z" />
<glyph unicode="&#xb2;" horiz-adv-x="937" d="M795 446h-652v146q206 154 299 270.5t93 210.5q0 56 -28.5 85.5t-76.5 29.5q-78 0 -145 -60l-140 138q134 108 285 108q152 0 240 -80t88 -202q0 -118 -77.5 -234.5t-209.5 -220.5h324v-191z" />
<glyph unicode="&#xb3;" horiz-adv-x="937" d="M782 702q0 -121 -91 -197.5t-263 -76.5q-94 0 -176.5 30.5t-134.5 78.5l137 137q77 -60 156 -60q71 0 106 27.5t35 69.5t-38 67t-95 25h-119v192h119q61 0 94 27.5t33 73.5q0 42 -31 67t-92 25q-80 0 -150 -60l-137 138q124 108 293 108q150 0 241 -74t91 -186 q0 -70 -40.5 -124t-105.5 -81q70 -16 119 -73t49 -134z" />
<glyph unicode="&#xb4;" horiz-adv-x="614" d="M539 1366l-289 -291h-166l96 291h359z" />
<glyph unicode="&#xb5;" horiz-adv-x="1214" d="M1092 0h-314v143q-44 -77 -115 -123.5t-151 -46.5q-32 0 -61 13v-410h-328v1366h328v-498q0 -204 149 -204q85 0 124.5 59t39.5 193v450h328v-942z" />
<glyph unicode="&#xb6;" horiz-adv-x="1460" d="M1202 -424h-328v1536h-131v-1536h-327v1038q-154 0 -264.5 110.5t-110.5 264.5q0 155 110.5 266t264.5 111h786v-1790z" />
<glyph unicode="&#xb7;" horiz-adv-x="587" d="M465 375h-342v342h342v-342z" />
<glyph unicode="&#xb8;" horiz-adv-x="641" d="M532 -199q0 -80 -64 -135t-181 -55q-118 0 -191 76l82 82q38 -41 94 -41q29 0 45.5 14t16.5 33q0 78 -135 78l73 147h164l-28 -57q124 -34 124 -142z" />
<glyph unicode="&#xb9;" horiz-adv-x="937" d="M621 446h-218v691q-35 -35 -104 -61t-137 -34v189q70 10 139 46.5t119 88.5h201v-920z" />
<glyph unicode="&#xba;" horiz-adv-x="817" d="M762 1036q0 -158 -97.5 -254t-256.5 -96q-157 0 -255 96t-98 254q0 156 98 252t255 96q159 0 256.5 -96t97.5 -252zM528 1036q0 86 -34.5 129t-85.5 43q-49 0 -84 -43t-35 -129t35 -129t84 -43q51 0 85.5 43t34.5 129z" />
<glyph unicode="&#xbb;" horiz-adv-x="1140" d="M1044 471l-190 -383h-317l190 383l-190 383h317zM588 471l-193 -383h-315l190 383l-190 383h315z" />
<glyph unicode="&#xbc;" horiz-adv-x="2074" d="M1925 182h-145v-182h-209v182h-383v205l354 524h238v-542h145v-187zM1673 1366l-956 -1366h-260l956 1366h260zM621 446h-218v691q-35 -35 -104 -61t-137 -34v189q70 10 139 46.5t119 88.5h201v-920zM1571 369v286l-187 -286h187z" />
<glyph unicode="&#xbd;" horiz-adv-x="2074" d="M1968 0h-651v145q206 154 298.5 271.5t92.5 212.5q0 54 -28 83t-76 29q-80 0 -146 -59l-139 137q138 111 285 111q152 0 239.5 -80t87.5 -203q0 -229 -286 -457h323v-190zM1614 1366l-957 -1366h-258l955 1366h260zM621 446h-218v691q-35 -35 -104 -61t-137 -34v189 q70 10 139 46.5t119 88.5h201v-920z" />
<glyph unicode="&#xbe;" horiz-adv-x="2074" d="M1925 182h-145v-182h-209v182h-383v205l354 524h238v-542h145v-187zM1673 1366l-956 -1366h-260l956 1366h260zM782 702q0 -121 -91 -197.5t-263 -76.5q-94 0 -176.5 30.5t-134.5 78.5l137 137q77 -60 156 -60q71 0 106 27.5t35 69.5t-38 67t-95 25h-119v192h119 q61 0 94 27.5t33 73.5q0 42 -31 67t-92 25q-80 0 -150 -60l-137 138q124 108 293 108q150 0 241 -74t91 -186q0 -70 -40.5 -124t-105.5 -81q70 -16 119 -73t49 -134zM1571 369v286l-187 -286h187z" />
<glyph unicode="&#xbf;" horiz-adv-x="1009" d="M731 1024h-342v342h342v-342zM983 143q-77 -77 -189.5 -123.5t-246.5 -46.5q-221 0 -356.5 107t-135.5 262q0 63 19 118.5t50 95.5t68 76t74 67.5t68 61.5t50 66t19 74h314q0 -55 -16 -103t-42 -83.5t-57 -68t-62.5 -62t-57.5 -59t-42 -66t-16 -76.5q0 -59 39.5 -95 t109.5 -36q55 0 109 28t94 70z" />
<glyph unicode="&#xc0;" horiz-adv-x="1284" d="M1325 0h-356l-90 287h-473l-93 -287h-354l498 1366h368zM791 559l-150 465l-147 -465h297zM780 1485h-166l-288 291h358z" />
<glyph unicode="&#xc1;" horiz-adv-x="1284" d="M1325 0h-356l-90 287h-473l-93 -287h-354l498 1366h368zM791 559l-150 465l-147 -465h297zM948 1776l-289 -291h-165l96 291h358z" />
<glyph unicode="&#xc2;" horiz-adv-x="1284" d="M1325 0h-356l-90 287h-473l-93 -287h-354l498 1366h368zM791 559l-150 465l-147 -465h297zM926 1485h-205l-80 162l-80 -162h-205l158 291h254z" />
<glyph unicode="&#xc3;" horiz-adv-x="1284" d="M1325 0h-356l-90 287h-473l-93 -287h-354l498 1366h368zM791 559l-150 465l-147 -465h297zM1008 1745q0 -103 -73.5 -175.5t-176.5 -72.5q-54 0 -94.5 17t-59 37.5t-39.5 37.5t-41 17t-35.5 -16t-15.5 -36h-197q0 103 72.5 175.5t175.5 72.5q54 0 95 -17t59.5 -37 t39.5 -37t40 -17q22 0 37.5 14.5t15.5 36.5h197z" />
<glyph unicode="&#xc4;" horiz-adv-x="1284" d="M1325 0h-356l-90 287h-473l-93 -287h-354l498 1366h368zM791 559l-150 465l-147 -465h297zM963 1501h-267v275h267v-275zM588 1501h-266v275h266v-275z" />
<glyph unicode="&#xc5;" horiz-adv-x="1284" d="M1325 0h-356l-90 287h-473l-93 -287h-354l498 1366h368zM791 559l-150 465l-147 -465h297zM819 1632q0 -74 -51.5 -126t-124.5 -52t-125.5 52t-52.5 126q0 73 52 124.5t126 51.5q73 0 124.5 -51t51.5 -125zM725 1632q0 34 -24 58t-58 24t-58 -24t-24 -58t24 -58t58 -24 t58 24t24 58z" />
<glyph unicode="&#xc6;" horiz-adv-x="1617" d="M1522 0h-785v281h-342l-149 -281h-404l813 1366h854v-287h-430v-256h416v-286h-416v-250h443v-287zM737 567v361l-190 -361h190z" />
<glyph unicode="&#xc7;" horiz-adv-x="1243" d="M1229 137q-66 -68 -175 -114.5t-237 -55.5l-12 -24q57 -16 90 -51.5t33 -90.5q0 -81 -64 -135.5t-182 -54.5q-117 0 -190 76l81 82q41 -41 97 -41q29 0 45 14t16 33q0 78 -135 78l59 118q-275 34 -431 223t-156 488q0 329 187 523t509 194q145 0 268 -48t197 -122 l-207 -207q-87 90 -217 90q-179 0 -274 -114t-95 -316t95 -316t274 -114q127 0 217 90z" />
<glyph unicode="&#xc8;" horiz-adv-x="1030" d="M936 0h-799v1366h785v-287h-430v-256h415v-286h-415v-250h444v-287zM623 1485h-166l-289 291h358z" />
<glyph unicode="&#xc9;" horiz-adv-x="1030" d="M936 0h-799v1366h785v-287h-430v-256h415v-286h-415v-250h444v-287zM811 1776l-289 -291h-166l97 291h358z" />
<glyph unicode="&#xca;" horiz-adv-x="1030" d="M936 0h-799v1366h785v-287h-430v-256h415v-286h-415v-250h444v-287zM815 1485h-205l-80 162l-79 -162h-205l157 291h254z" />
<glyph unicode="&#xcb;" horiz-adv-x="1030" d="M936 0h-799v1366h785v-287h-430v-256h415v-286h-415v-250h444v-287zM858 1501h-266v275h266v-275zM483 1501h-266v275h266v-275z" />
<glyph unicode="&#xcc;" horiz-adv-x="628" d="M492 0h-355v1366h355v-1366zM489 1485h-165l-289 291h358z" />
<glyph unicode="&#xcd;" horiz-adv-x="628" d="M492 0h-355v1366h355v-1366zM592 1776l-289 -291h-166l96 291h359z" />
<glyph unicode="&#xce;" horiz-adv-x="628" d="M492 0h-355v1366h355v-1366zM598 1485h-205l-80 162l-80 -162h-204l157 291h254z" />
<glyph unicode="&#xcf;" horiz-adv-x="628" d="M492 0h-355v1366h355v-1366zM635 1501h-266v275h266v-275zM260 1501h-266v275h266v-275z" />
<glyph unicode="&#xd0;" horiz-adv-x="1378" d="M1311 682q0 -217 -90 -372t-249 -232.5t-372 -77.5h-450v571h-150v222h150v573h450q213 0 372 -77.5t249 -233t90 -373.5zM942 682q0 184 -95.5 290.5t-258.5 106.5h-82v-286h149v-222h-149v-284h82q163 0 258.5 105.5t95.5 289.5z" />
<glyph unicode="&#xd1;" horiz-adv-x="1419" d="M1284 0h-424l-395 881v-881h-328v1366h422l397 -881v881h328v-1366zM1075 1745q0 -103 -73.5 -175.5t-176.5 -72.5q-44 0 -79 11t-55 27.5t-35.5 32.5t-31 27t-32.5 11q-20 0 -35.5 -16t-15.5 -36h-197q0 103 72.5 175.5t175.5 72.5q54 0 95 -17t59 -37t39 -37t40 -17 q22 0 38 15t16 36h196z" />
<glyph unicode="&#xd2;" horiz-adv-x="1433" d="M1366 682q0 -326 -178 -521.5t-471 -195.5t-471 195.5t-178 521.5q0 327 178 522t471 195t471 -195t178 -522zM997 682q0 203 -75.5 316.5t-204.5 113.5t-205 -113.5t-76 -316.5q0 -202 76 -316t205 -114t204.5 114t75.5 316zM831 1485h-165l-289 291h358z" />
<glyph unicode="&#xd3;" horiz-adv-x="1433" d="M1366 682q0 -326 -178 -521.5t-471 -195.5t-471 195.5t-178 521.5q0 327 178 522t471 195t471 -195t178 -522zM997 682q0 203 -75.5 316.5t-204.5 113.5t-205 -113.5t-76 -316.5q0 -202 76 -316t205 -114t204.5 114t75.5 316zM1053 1776l-289 -291h-166l96 291h359z" />
<glyph unicode="&#xd4;" horiz-adv-x="1433" d="M1366 682q0 -326 -178 -521.5t-471 -195.5t-471 195.5t-178 521.5q0 327 178 522t471 195t471 -195t178 -522zM997 682q0 203 -75.5 316.5t-204.5 113.5t-205 -113.5t-76 -316.5q0 -202 76 -316t205 -114t204.5 114t75.5 316zM999 1485h-204l-80 162l-80 -162h-205 l158 291h254z" />
<glyph unicode="&#xd5;" horiz-adv-x="1433" d="M997 682q0 203 -75.5 316.5t-204.5 113.5t-205 -113.5t-76 -316.5q0 -202 76 -316t205 -114t204.5 114t75.5 316zM1366 682q0 -326 -178 -521.5t-471 -195.5t-471 195.5t-178 521.5q0 327 178 522t471 195t471 -195t178 -522zM885 1745h196q0 -103 -72.5 -175.5 t-174.5 -72.5q-54 0 -95 17t-59.5 37.5t-39.5 37.5t-40 17q-22 0 -37.5 -15t-15.5 -37h-197q0 101 73.5 174.5t176.5 73.5q54 0 94.5 -17t59 -37t39.5 -37t41 -17q22 0 36.5 14.5t14.5 36.5z" />
<glyph unicode="&#xd6;" horiz-adv-x="1433" d="M1366 682q0 -326 -178 -521.5t-471 -195.5t-471 195.5t-178 521.5q0 327 178 522t471 195t471 -195t178 -522zM997 682q0 203 -75.5 316.5t-204.5 113.5t-205 -113.5t-76 -316.5q0 -202 76 -316t205 -114t204.5 114t75.5 316zM1034 1501h-266v275h266v-275zM659 1501 h-266v275h266v-275z" />
<glyph unicode="&#xd7;" horiz-adv-x="1120" d="M825 1112l176 -178l-264 -264l264 -267l-176 -176l-266 265l-264 -265l-178 176l266 267l-266 264l178 178l264 -266z" />
<glyph unicode="&#xd8;" horiz-adv-x="1433" d="M1366 682q0 -326 -178 -521.5t-471 -195.5q-167 0 -307 70l-68 -103h-246l152 228q-180 196 -180 522q0 327 178 522t471 195q167 0 307 -70l68 105h245l-151 -228q180 -196 180 -524zM860 1075q-64 45 -143 45q-133 0 -211 -116.5t-78 -321.5q0 -117 29 -215zM1006 682 q0 119 -29 217l-404 -608q64 -45 144 -45q133 0 211 116t78 320z" />
<glyph unicode="&#xd9;" horiz-adv-x="1378" d="M1243 471q0 -231 -149.5 -368.5t-403.5 -137.5q-255 0 -404 137.5t-149 368.5v895h355v-895q0 -104 55.5 -161.5t142.5 -57.5q85 0 141 58t56 161v895h356v-895zM823 1485h-166l-288 291h358z" />
<glyph unicode="&#xda;" horiz-adv-x="1378" d="M1243 471q0 -231 -149.5 -368.5t-403.5 -137.5q-255 0 -404 137.5t-149 368.5v895h355v-895q0 -104 55.5 -161.5t142.5 -57.5q85 0 141 58t56 161v895h356v-895zM1012 1776l-289 -291h-166l96 291h359z" />
<glyph unicode="&#xdb;" horiz-adv-x="1378" d="M1243 471q0 -231 -149.5 -368.5t-403.5 -137.5q-255 0 -404 137.5t-149 368.5v895h355v-895q0 -104 55.5 -161.5t142.5 -57.5q85 0 141 58t56 161v895h356v-895zM973 1485h-205l-80 162l-80 -162h-205l158 291h254z" />
<glyph unicode="&#xdc;" horiz-adv-x="1378" d="M1243 471q0 -231 -149.5 -368.5t-403.5 -137.5q-255 0 -404 137.5t-149 368.5v895h355v-895q0 -104 55.5 -161.5t142.5 -57.5q85 0 141 58t56 161v895h356v-895zM1010 1501h-267v275h267v-275zM635 1501h-266v275h266v-275z" />
<glyph unicode="&#xdd;" horiz-adv-x="1243" d="M1290 1366l-491 -813v-553h-355v553l-491 813h430l238 -479l239 479h430zM946 1776l-289 -291h-165l96 291h358z" />
<glyph unicode="&#xde;" horiz-adv-x="1181" d="M1153 682q0 -176 -134.5 -301t-336.5 -125h-190v-256h-355v1366h355v-254h190q202 0 336.5 -126t134.5 -304zM793 682q0 59 -44 101t-114 42h-143v-282h143q70 0 114 40t44 99z" />
<glyph unicode="&#xdf;" horiz-adv-x="1214" d="M1161 420q0 -194 -132.5 -317t-381.5 -123q-57 0 -115 20v270q43 -24 103 -24q86 0 135 49.5t49 124.5q0 76 -48.5 125t-135.5 49h-103v252h56q75 0 119.5 44.5t44.5 113.5q0 52 -38.5 87t-99.5 35q-78 0 -120.5 -51t-42.5 -139v-936h-328v928q0 207 137 336t381 129 q105 0 192 -27.5t142.5 -74t86 -106.5t30.5 -126q0 -105 -60 -195t-153 -129q131 -35 206.5 -116.5t75.5 -198.5z" />
<glyph unicode="&#xe0;" horiz-adv-x="1091" d="M969 0h-314v129q-95 -156 -286 -156q-147 0 -230.5 80t-83.5 199q0 134 105.5 217.5t310.5 83.5h170v35q0 60 -41 97.5t-115 37.5q-98 0 -188 -74l-180 185q184 135 415 135q191 0 314 -105t123 -276v-588zM641 354v35h-123q-67 0 -101 -27.5t-34 -68.5q0 -39 29 -66.5 t80 -27.5q68 0 108.5 40t40.5 115zM674 1075h-166l-289 291h359z" />
<glyph unicode="&#xe1;" horiz-adv-x="1091" d="M969 0h-314v129q-95 -156 -286 -156q-147 0 -230.5 80t-83.5 199q0 134 105.5 217.5t310.5 83.5h170v35q0 60 -41 97.5t-115 37.5q-98 0 -188 -74l-180 185q184 135 415 135q191 0 314 -105t123 -276v-588zM641 354v35h-123q-67 0 -101 -27.5t-34 -68.5q0 -39 29 -66.5 t80 -27.5q68 0 108.5 40t40.5 115zM850 1366l-289 -291h-166l97 291h358z" />
<glyph unicode="&#xe2;" horiz-adv-x="1091" d="M969 0h-314v129q-95 -156 -286 -156q-147 0 -230.5 80t-83.5 199q0 134 105.5 217.5t310.5 83.5h170v35q0 60 -41 97.5t-115 37.5q-98 0 -188 -74l-180 185q184 135 415 135q191 0 314 -105t123 -276v-588zM641 354v35h-123q-67 0 -101 -27.5t-34 -68.5q0 -39 29 -66.5 t80 -27.5q68 0 108.5 40t40.5 115zM815 1075h-205l-80 162l-79 -162h-205l157 291h254z" />
<glyph unicode="&#xe3;" horiz-adv-x="1091" d="M969 0h-314v129q-95 -156 -286 -156q-147 0 -230.5 80t-83.5 199q0 134 105.5 217.5t310.5 83.5h170v35q0 60 -41 97.5t-115 37.5q-98 0 -188 -74l-180 185q184 135 415 135q191 0 314 -105t123 -276v-588zM641 354v35h-123q-67 0 -101 -27.5t-34 -68.5q0 -39 29 -66.5 t80 -27.5q68 0 108.5 40t40.5 115zM915 1335q0 -103 -73 -175.5t-176 -72.5q-54 0 -94.5 17t-59 37.5t-39.5 37.5t-41 17t-35.5 -15.5t-15.5 -35.5h-197q0 103 72.5 175.5t175.5 72.5q54 0 95 -17t59.5 -37.5t39.5 -37.5t40 -17q22 0 37.5 14.5t15.5 36.5h196z" />
<glyph unicode="&#xe4;" horiz-adv-x="1091" d="M969 0h-314v129q-95 -156 -286 -156q-147 0 -230.5 80t-83.5 199q0 134 105.5 217.5t310.5 83.5h170v35q0 60 -41 97.5t-115 37.5q-98 0 -188 -74l-180 185q184 135 415 135q191 0 314 -105t123 -276v-588zM641 354v35h-123q-67 0 -101 -27.5t-34 -68.5q0 -39 29 -66.5 t80 -27.5q68 0 108.5 40t40.5 115zM866 1092h-266v274h266v-274zM492 1092h-267v274h267v-274z" />
<glyph unicode="&#xe5;" horiz-adv-x="1091" d="M969 0h-314v129q-95 -156 -286 -156q-147 0 -230.5 80t-83.5 199q0 134 105.5 217.5t310.5 83.5h170v35q0 60 -41 97.5t-115 37.5q-98 0 -188 -74l-180 185q184 135 415 135q191 0 314 -105t123 -276v-588zM641 354v35h-123q-67 0 -101 -27.5t-34 -68.5q0 -39 29 -66.5 t80 -27.5q68 0 108.5 40t40.5 115zM709 1223q0 -74 -52 -126.5t-125 -52.5t-125.5 52.5t-52.5 126.5q0 73 52 124.5t126 51.5t125.5 -51.5t51.5 -124.5zM614 1223q0 34 -24 58t-58 24t-57.5 -24t-23.5 -58t23.5 -58t57.5 -24t58 24t24 58z" />
<glyph unicode="&#xe6;" horiz-adv-x="1652" d="M1571 403h-596q36 -190 213 -190q109 0 186 80l182 -184q-136 -136 -374 -136q-289 0 -404 207q-40 -91 -140.5 -149t-221.5 -58q-167 0 -264 84.5t-97 214.5q0 140 104.5 228t311.5 88h170v6q0 69 -36 106t-99 37q-89 0 -209 -88l-180 185q184 135 393 135 q108 0 197 -37.5t135 -102.5q43 62 131.5 101t187.5 39q189 0 299.5 -128.5t110.5 -363.5v-74zM1264 600v14q0 67 -35 104.5t-103 37.5q-55 0 -94.5 -39.5t-56.5 -116.5h289zM641 354v56h-123q-65 0 -100 -32t-35 -73q0 -48 29.5 -77t79.5 -29q68 0 108.5 40t40.5 115z" />
<glyph unicode="&#xe7;" horiz-adv-x="983" d="M956 109q-48 -48 -124 -84.5t-166 -47.5l-19 -34q58 -16 91.5 -52t33.5 -90q0 -80 -65 -135t-181 -55t-192 76l82 82q41 -41 96 -41q29 0 45 14t16 33q0 78 -135 78l64 124q-198 27 -319.5 160t-121.5 334q0 149 68 263t187.5 174.5t271.5 60.5q114 0 211.5 -38 t156.5 -97l-182 -185q-68 68 -153 68q-92 0 -155 -66.5t-63 -179.5t63 -179.5t155 -66.5q85 0 153 68z" />
<glyph unicode="&#xe8;" horiz-adv-x="1064" d="M983 403h-594q33 -184 211 -184q114 0 188 74l181 -184q-136 -136 -375 -136q-243 0 -388 137t-145 361q0 99 35 190t96 159t151.5 108.5t195.5 40.5q212 0 328 -125.5t116 -366.5v-74zM676 600v14q0 138 -137 138q-114 0 -148 -152h285zM682 1075h-166l-289 291h359z " />
<glyph unicode="&#xe9;" horiz-adv-x="1064" d="M983 403h-594q33 -184 211 -184q114 0 188 74l181 -184q-136 -136 -375 -136q-243 0 -388 137t-145 361q0 99 35 190t96 159t151.5 108.5t195.5 40.5q212 0 328 -125.5t116 -366.5v-74zM676 600v14q0 138 -137 138q-114 0 -148 -152h285zM850 1366l-289 -291h-166l97 291 h358z" />
<glyph unicode="&#xea;" horiz-adv-x="1064" d="M983 403h-594q33 -184 211 -184q114 0 188 74l181 -184q-136 -136 -375 -136q-243 0 -388 137t-145 361q0 99 35 190t96 159t151.5 108.5t195.5 40.5q212 0 328 -125.5t116 -366.5v-74zM676 600v14q0 138 -137 138q-114 0 -148 -152h285zM823 1075h-205l-79 162l-80 -162 h-205l158 291h254z" />
<glyph unicode="&#xeb;" horiz-adv-x="1064" d="M983 403h-594q33 -184 211 -184q114 0 188 74l181 -184q-136 -136 -375 -136q-243 0 -388 137t-145 361q0 99 35 190t96 159t151.5 108.5t195.5 40.5q212 0 328 -125.5t116 -366.5v-74zM676 600v14q0 138 -137 138q-114 0 -148 -152h285zM860 1092h-266v274h266v-274z M485 1092h-266v274h266v-274z" />
<glyph unicode="&#xec;" horiz-adv-x="573" d="M451 0h-328v942h328v-942zM440 1075h-166l-288 291h358z" />
<glyph unicode="&#xed;" horiz-adv-x="573" d="M451 0h-328v942h328v-942zM588 1366l-289 -291h-166l96 291h359z" />
<glyph unicode="&#xee;" horiz-adv-x="573" d="M451 0h-328v942h328v-942zM571 1075h-204l-80 162l-80 -162h-205l158 291h254z" />
<glyph unicode="&#xef;" horiz-adv-x="573" d="M451 0h-328v942h328v-942zM606 1092h-266v274h266v-274zM231 1092h-266v274h266v-274z" />
<glyph unicode="&#xf0;" horiz-adv-x="1132" d="M1071 477q0 -141 -61 -255t-177 -181.5t-266 -67.5q-220 0 -363 123.5t-143 313.5q0 83 33 160t90 135.5t141.5 93.5t180.5 35q50 0 103.5 -16.5t92.5 -45.5q-38 72 -157 184l-172 -102l-113 186l105 64q-59 42 -105 70l217 219q85 -52 166 -121l201 121l112 -187 l-153 -94q125 -145 196.5 -309t71.5 -326zM737 410q0 80 -49 132t-121 52t-122 -52t-50 -132t50 -132.5t122 -52.5t121 52t49 133z" />
<glyph unicode="&#xf1;" horiz-adv-x="1214" d="M1092 0h-328v498q0 204 -150 204q-84 0 -123.5 -58.5t-39.5 -192.5v-451h-328v942h313v-143q44 78 118.5 124t168.5 46q164 0 266.5 -109.5t102.5 -286.5v-573zM971 1335q0 -103 -73.5 -175.5t-176.5 -72.5q-54 0 -94.5 17t-59 37.5t-39.5 37.5t-41 17t-35.5 -15.5 t-15.5 -35.5h-196q0 103 72 175.5t175 72.5q54 0 95 -17t59.5 -37.5t39.5 -37.5t40 -17q22 0 37.5 14.5t15.5 36.5h197z" />
<glyph unicode="&#xf2;" horiz-adv-x="1132" d="M1071 471q0 -225 -139.5 -361.5t-364.5 -136.5t-365.5 136.5t-140.5 361.5t140.5 361.5t365.5 136.5t364.5 -136.5t139.5 -361.5zM737 471q0 123 -50 184.5t-120 61.5q-72 0 -122 -61.5t-50 -184.5q0 -122 50.5 -184t121.5 -62q70 0 120 62t50 184zM709 1075h-166 l-289 291h358z" />
<glyph unicode="&#xf3;" horiz-adv-x="1132" d="M1071 471q0 -225 -139.5 -361.5t-364.5 -136.5t-365.5 136.5t-140.5 361.5t140.5 361.5t365.5 136.5t364.5 -136.5t139.5 -361.5zM737 471q0 123 -50 184.5t-120 61.5q-72 0 -122 -61.5t-50 -184.5q0 -122 50.5 -184t121.5 -62q70 0 120 62t50 184zM879 1366l-289 -291 h-166l96 291h359z" />
<glyph unicode="&#xf4;" horiz-adv-x="1132" d="M1071 471q0 -225 -139.5 -361.5t-364.5 -136.5t-365.5 136.5t-140.5 361.5t140.5 361.5t365.5 136.5t364.5 -136.5t139.5 -361.5zM737 471q0 123 -50 184.5t-120 61.5q-72 0 -122 -61.5t-50 -184.5q0 -122 50.5 -184t121.5 -62q70 0 120 62t50 184zM850 1075h-205 l-80 162l-80 -162h-204l157 291h254z" />
<glyph unicode="&#xf5;" horiz-adv-x="1132" d="M1071 471q0 -225 -139.5 -361.5t-364.5 -136.5t-365.5 136.5t-140.5 361.5t140.5 361.5t365.5 136.5t364.5 -136.5t139.5 -361.5zM737 471q0 123 -50 184.5t-120 61.5q-72 0 -122 -61.5t-50 -184.5q0 -122 50.5 -184t121.5 -62q70 0 120 62t50 184zM932 1335 q0 -103 -73.5 -175.5t-176.5 -72.5q-44 0 -79 11t-55 27.5t-35.5 32.5t-31 27t-32.5 11q-20 0 -36 -15.5t-16 -35.5h-196q0 103 72.5 175.5t175.5 72.5q44 0 79 -11t55 -27.5t36 -32.5t31.5 -27t31.5 -11q22 0 37.5 14.5t15.5 36.5h197z" />
<glyph unicode="&#xf6;" horiz-adv-x="1132" d="M1071 471q0 -225 -139.5 -361.5t-364.5 -136.5t-365.5 136.5t-140.5 361.5t140.5 361.5t365.5 136.5t364.5 -136.5t139.5 -361.5zM737 471q0 123 -50 184.5t-120 61.5q-72 0 -122 -61.5t-50 -184.5q0 -122 50.5 -184t121.5 -62q70 0 120 62t50 184zM887 1092h-266v274 h266v-274zM512 1092h-266v274h266v-274z" />
<glyph unicode="&#xf7;" horiz-adv-x="1120" d="M696 887h-272v274h272v-274zM1018 543h-916v252h916v-252zM696 178h-272v273h272v-273z" />
<glyph unicode="&#xf8;" horiz-adv-x="1132" d="M1071 471q0 -225 -139.5 -361.5t-364.5 -136.5q-104 0 -192 31l-45 -72h-205l100 156q-164 139 -164 383q0 225 140.5 361.5t365.5 136.5q103 0 191 -31l45 72h205l-99 -156q162 -140 162 -383zM627 719q-27 12 -60 12q-78 0 -133 -65.5t-55 -194.5q0 -68 16 -121z M756 471q0 69 -19 121l-231 -369q27 -12 61 -12q78 0 133.5 65.5t55.5 194.5z" />
<glyph unicode="&#xf9;" horiz-adv-x="1214" d="M1092 0h-314v143q-44 -78 -118 -124t-168 -46q-164 0 -266.5 109.5t-102.5 286.5v573h328v-498q0 -204 149 -204q85 0 124.5 59t39.5 193v450h328v-942zM756 1075h-166l-289 291h358z" />
<glyph unicode="&#xfa;" horiz-adv-x="1214" d="M1092 0h-314v143q-44 -78 -118 -124t-168 -46q-164 0 -266.5 109.5t-102.5 286.5v573h328v-498q0 -204 149 -204q85 0 124.5 59t39.5 193v450h328v-942zM913 1366l-288 -291h-166l96 291h358z" />
<glyph unicode="&#xfb;" horiz-adv-x="1214" d="M1092 0h-314v143q-44 -78 -118 -124t-168 -46q-164 0 -266.5 109.5t-102.5 286.5v573h328v-498q0 -204 149 -204q85 0 124.5 59t39.5 193v450h328v-942zM891 1075h-205l-80 162l-80 -162h-204l157 291h254z" />
<glyph unicode="&#xfc;" horiz-adv-x="1214" d="M1092 0h-314v143q-44 -78 -118 -124t-168 -46q-164 0 -266.5 109.5t-102.5 286.5v573h328v-498q0 -204 149 -204q85 0 124.5 59t39.5 193v450h328v-942zM928 1092h-266v274h266v-274zM553 1092h-266v274h266v-274z" />
<glyph unicode="&#xfd;" horiz-adv-x="1024" d="M1051 942l-437 -1114q-59 -149 -137.5 -214t-189.5 -65q-115 0 -226 27v254q67 -29 132 -29q87 0 108 58l45 127l-373 956h349l190 -649l190 649h349zM801 1366l-289 -291h-166l96 291h359z" />
<glyph unicode="&#xfe;" horiz-adv-x="1187" d="M1126 471q0 -120 -34.5 -216.5t-92.5 -157t-132 -92.5t-156 -32t-152 38.5t-108 97.5v-533h-328v1790h328v-532q38 59 108 97t152 38t156 -32t132 -92.5t92.5 -157t34.5 -216.5zM793 471q0 123 -50 184.5t-122 61.5q-70 0 -120 -61.5t-50 -184.5q0 -122 50 -184t120 -62 q71 0 121.5 62t50.5 184z" />
<glyph unicode="&#xff;" horiz-adv-x="1024" d="M1051 942l-437 -1114q-59 -149 -137.5 -214t-189.5 -65q-115 0 -226 27v254q67 -29 132 -29q87 0 108 58l45 127l-373 956h349l190 -649l190 649h349zM834 1092h-267v274h267v-274zM459 1092h-266v274h266v-274z" />
<glyph unicode="&#x152;" horiz-adv-x="1890" d="M1796 0h-799v61q-46 -40 -132.5 -68t-174.5 -28q-273 0 -447.5 197t-174.5 520q0 215 80.5 379t221.5 251t320 87q88 0 174.5 -27.5t132.5 -66.5v61h785v-287h-430v-256h415v-286h-415v-250h444v-287zM997 682q0 203 -75.5 316.5t-204.5 113.5t-205 -113.5t-76 -316.5 q0 -202 76 -316t205 -114t204.5 114t75.5 316z" />
<glyph unicode="&#x153;" horiz-adv-x="1740" d="M1659 403h-594q33 -184 211 -184q114 0 188 74l181 -184q-136 -136 -375 -136q-118 0 -214 40t-149 110q-133 -150 -360 -150q-210 0 -348 137.5t-138 360.5t138 360.5t348 137.5q112 0 206.5 -41t151.5 -109q51 66 141 108t183 42q202 0 316 -126t114 -366v-74z M1352 600v14q0 138 -138 138q-113 0 -147 -152h285zM737 471q0 123 -50 184.5t-120 61.5q-72 0 -122 -61.5t-50 -184.5q0 -122 50.5 -184t121.5 -62q70 0 120 62t50 184z" />
<glyph unicode="&#x178;" horiz-adv-x="1243" d="M1290 1366l-491 -813v-553h-355v553l-491 813h430l238 -479l239 479h430zM942 1501h-266v275h266v-275zM567 1501h-266v275h266v-275z" />
<glyph unicode="&#x2c6;" horiz-adv-x="614" d="M592 1075h-205l-80 162l-80 -162h-204l157 291h254z" />
<glyph unicode="&#x2dc;" horiz-adv-x="780" d="M756 1335q0 -103 -73.5 -175.5t-176.5 -72.5q-54 0 -94.5 17t-59 37.5t-39.5 37.5t-41 17t-35.5 -15.5t-15.5 -35.5h-196q0 103 72 175.5t175 72.5q54 0 95 -17t59.5 -37.5t39.5 -37.5t40 -17q22 0 37.5 14.5t15.5 36.5h197z" />
<glyph unicode="&#x2000;" horiz-adv-x="904" />
<glyph unicode="&#x2001;" horiz-adv-x="1808" />
<glyph unicode="&#x2002;" horiz-adv-x="904" />
<glyph unicode="&#x2003;" horiz-adv-x="1808" />
<glyph unicode="&#x2004;" horiz-adv-x="602" />
<glyph unicode="&#x2005;" horiz-adv-x="452" />
<glyph unicode="&#x2006;" horiz-adv-x="301" />
<glyph unicode="&#x2007;" horiz-adv-x="301" />
<glyph unicode="&#x2008;" horiz-adv-x="226" />
<glyph unicode="&#x2009;" horiz-adv-x="361" />
<glyph unicode="&#x200a;" horiz-adv-x="100" />
<glyph unicode="&#x2010;" horiz-adv-x="778" d="M676 387h-574v250h574v-250z" />
<glyph unicode="&#x2011;" horiz-adv-x="778" d="M676 387h-574v250h574v-250z" />
<glyph unicode="&#x2012;" horiz-adv-x="778" d="M676 387h-574v250h574v-250z" />
<glyph unicode="&#x2013;" horiz-adv-x="1296" d="M1194 387h-1092v250h1092v-250z" />
<glyph unicode="&#x2014;" horiz-adv-x="2048" d="M1946 387h-1844v250h1844v-250z" />
<glyph unicode="&#x2018;" horiz-adv-x="573" d="M453 1366l-64 -561h-342l234 561h172z" />
<glyph unicode="&#x2019;" horiz-adv-x="573" d="M526 1366l-233 -561h-172l63 561h342z" />
<glyph unicode="&#x201a;" horiz-adv-x="573" d="M526 342l-233 -561h-172l63 561h342z" />
<glyph unicode="&#x201c;" horiz-adv-x="1024" d="M903 1366l-63 -561h-342l233 561h172zM453 1366l-64 -561h-342l234 561h172z" />
<glyph unicode="&#x201d;" horiz-adv-x="1024" d="M977 1366l-234 -561h-172l64 561h342zM526 1366l-233 -561h-172l63 561h342z" />
<glyph unicode="&#x201e;" horiz-adv-x="1024" d="M977 342l-234 -561h-172l64 561h342zM526 342l-233 -561h-172l63 561h342z" />
<glyph unicode="&#x2022;" horiz-adv-x="600" d="M506 547q0 -86 -60 -145.5t-145 -59.5q-86 0 -145.5 59.5t-59.5 145.5q0 85 59.5 145t145.5 60q85 0 145 -60t60 -145z" />
<glyph unicode="&#x2026;" horiz-adv-x="1761" d="M1638 0h-342v342h342v-342zM1051 0h-340v342h340v-342zM465 0h-342v342h342v-342z" />
<glyph unicode="&#x202f;" horiz-adv-x="361" />
<glyph unicode="&#x2039;" horiz-adv-x="681" d="M604 88h-317l-191 383l191 383h317l-192 -383z" />
<glyph unicode="&#x203a;" horiz-adv-x="681" d="M588 471l-193 -383h-315l190 383l-190 383h315z" />
<glyph unicode="&#x205f;" horiz-adv-x="452" />
<glyph unicode="&#x20ac;" horiz-adv-x="1284" d="M1270 137q-73 -75 -196.5 -123.5t-268.5 -48.5q-266 0 -443 136t-231 376h-158v144h138q0 10 -1 30.5t-1 30.5t1 31t1 30h-138v144h158q54 241 230.5 376.5t443.5 135.5q145 0 268 -48t197 -122l-207 -207q-87 90 -217 90q-127 0 -212 -58t-124 -167h446v-144h-477 q0 -8 -1 -28.5t-1 -32.5q0 -10 1 -30.5t1 -30.5h477v-144h-446q39 -108 124 -166.5t212 -58.5t217 90z" />
<glyph unicode="&#x2122;" horiz-adv-x="899" d="M817 1024h-106v219l-62 -219h-96l-61 219v-219h-107v342h154l61 -219l62 219h155v-342zM354 1270h-94v-246h-123v246h-96v96h313v-96z" />
<glyph unicode="&#x25fc;" horiz-adv-x="942" d="M0 942h942v-942h-942v942z" />
<glyph unicode="&#xfb01;" horiz-adv-x="1386" d="M1264 1092h-328v274h328v-274zM1264 0h-328v942h328v-942zM778 690h-246v-690h-327v690h-191v252h191v137q0 135 96.5 224.5t251.5 89.5q114 0 225 -27v-254q-67 29 -131 29q-115 0 -115 -103v-96h246v-252z" />
<glyph unicode="&#xfb02;" horiz-adv-x="1386" d="M778 690h-246v-690h-327v690h-191v252h191v137q0 135 96.5 224.5t251.5 89.5q114 0 225 -27v-254q-67 29 -131 29q-115 0 -115 -103v-96h246v-252zM1264 0h-328v1366h328v-1366z" />
</font>
</defs>
</svg>
